<svg width="65" height="65" viewBox="0 0 65 65" fill="none" xmlns="http://www.w3.org/2000/svg">
<circle cx="32.7273" cy="32.6037" r="30.75" fill="#450A28" stroke="#FF575A" stroke-width="2.5"/>
<path d="M26.5683 33.7827C26.1468 33.7827 25.7576 33.5579 25.5474 33.1931L20.5699 24.5745C20.2445 24.0105 20.4374 23.2893 21.0017 22.9636C21.5649 22.6363 22.2864 22.8312 22.6129 23.3952L26.5689 30.2459L30.1869 23.9849L25.8877 16.5428H17.2922L20.5699 20.4294C20.2445 20.9934 19.5236 21.1863 18.9587 20.8615C18.3949 20.5359 18.2015 19.8147 18.5268 19.2506L15.5895 14.7741C15.8002 14.409 16.1895 14.1842 16.611 14.1842H26.5683C26.9899 14.1842 27.3785 14.4087 27.5893 14.7735L32.5697 23.3949C32.781 23.76 32.781 24.21 32.5697 24.5748L27.5893 33.1934C27.3785 33.5581 26.9893 33.7827 26.5683 33.7827Z" fill="#FF575A"/>
<path d="M26.5676 33.7827H26.5422C26.1207 33.7827 25.7314 33.5582 25.5213 33.1934L15.5875 15.9511C15.2633 15.3868 15.4574 14.6664 16.0217 14.3417C16.5854 14.0166 17.3058 14.2104 17.6312 14.7735L27.5885 32.0138C27.7993 32.3786 27.7998 32.828 27.5891 33.1931C27.3783 33.5579 26.9891 33.7827 26.5676 33.7827Z" fill="#FF575A"/>
<path d="M26.5704 33.7827C25.9192 33.7827 25.3767 33.2547 25.3767 32.6034C25.3767 31.9521 25.891 31.4241 26.5422 31.4241H26.5676C27.2188 31.4241 27.7486 31.9521 27.7486 32.6034C27.7486 33.2547 27.2217 33.7827 26.5704 33.7827Z" fill="#FF575A"/>
<path d="M26.5676 51.0227H16.6102C16.1887 51.0227 15.7994 50.7978 15.5887 50.4327L10.6152 41.8142C10.4044 41.4494 10.405 41 10.6152 40.6352C10.8259 40.2704 11.2152 40.0455 11.6367 40.0455H20.9082L25.5466 32.0138C25.7568 31.649 26.146 31.4241 26.5676 31.4241C26.9885 31.4241 27.3778 31.6487 27.5885 32.0135L32.5689 40.6317C32.7802 40.9965 32.7802 41.4465 32.5689 41.8116L27.5885 50.4333C27.3778 50.7981 26.9891 51.0227 26.5676 51.0227ZM17.2914 48.664H25.8869L30.1861 41.2217L26.5681 34.9609L22.63 41.7796C22.4313 42.1508 22.0403 42.4041 21.5906 42.4041H13.6786L17.2914 48.664Z" fill="#FF575A"/>
<path d="M21.5906 42.4041C21.1691 42.4041 20.766 42.1793 20.5553 41.8145C20.3445 41.4494 20.3307 41 20.5414 40.6349L25.5213 32.0135C25.7315 31.6487 26.1207 31.4241 26.5422 31.4241C26.9637 31.4241 27.3657 31.649 27.5764 32.0138C27.7872 32.3788 27.7993 32.8283 27.5885 33.1931L22.63 41.7796C22.4313 42.1508 22.0403 42.4041 21.5906 42.4041Z" fill="#FF575A"/>
<path d="M26.5704 33.7827H26.5676C25.9163 33.7827 25.3756 33.2547 25.3756 32.6034C25.3756 31.9521 25.891 31.4241 26.5422 31.4241C27.1935 31.4241 27.7354 31.9521 27.7354 32.6034C27.7354 33.2547 27.2217 33.7827 26.5704 33.7827Z" fill="#FF575A"/>
<path d="M48.8441 51.0233H38.8873C38.4658 51.0233 38.0771 50.7988 37.8663 50.434L32.8859 41.8123C32.6746 41.4472 32.6746 40.9972 32.8859 40.6324L37.8663 32.0141C38.0771 31.6493 38.4664 31.4248 38.8873 31.4248C39.3088 31.4248 39.6981 31.6496 39.9088 32.0144L44.5466 40.0462H53.8181C54.2396 40.0462 54.6289 40.271 54.8397 40.6358C55.0498 41.0006 55.0498 41.4501 54.8397 41.8149L49.8656 50.4334C49.6548 50.7985 49.2656 51.0233 48.8441 51.0233ZM39.5679 48.6647H48.1628L51.7756 42.4048H43.8642C43.4041 42.4048 43.0062 42.1416 42.8116 41.7576L38.8867 34.9618L35.2687 41.2223L39.5679 48.6647Z" fill="#FF575A"/>
<path d="M43.8924 42.4048C43.4537 42.4048 43.0581 42.1653 42.8467 41.81L42.8433 41.8123L37.8657 33.1937C37.6556 32.8289 37.6556 32.3792 37.8657 32.0144C38.0765 31.6496 38.4658 31.4248 38.8873 31.4248H38.912C39.3336 31.4248 39.7222 31.6493 39.933 32.0141L44.9134 40.6355C45.1242 41.0003 45.1247 41.4501 44.914 41.8151C44.7032 42.1799 44.314 42.4048 43.8924 42.4048Z" fill="#FF575A"/>
<path d="M38.9121 33.7834H38.8873C38.236 33.7834 37.7063 33.2554 37.7063 32.6041C37.7063 31.9528 38.2326 31.4248 38.8838 31.4248C39.5351 31.4248 40.0775 31.9528 40.0775 32.6041C40.0775 33.2554 39.5633 33.7834 38.9121 33.7834Z" fill="#FF575A"/>
<path d="M38.8873 33.7839C38.4664 33.7839 38.0771 33.5593 37.8663 33.1945L32.8859 24.576C32.6746 24.2112 32.6746 23.7612 32.8859 23.3961L37.8663 14.7747C38.0771 14.4099 38.4658 14.1853 38.8873 14.1853H48.8441C49.2656 14.1853 49.6548 14.4102 49.8656 14.7752L47.0866 19.3056C47.412 19.8697 47.2185 20.5909 46.6547 20.9165C46.0887 21.2413 45.3695 21.0484 45.0435 20.4844L48.1628 16.5439H39.5679L35.2687 23.986L38.8867 30.2468L42.8277 23.4226C43.0275 23.0552 43.4168 22.8053 43.8642 22.8053C44.5155 22.8053 45.0435 23.3316 45.0435 23.9829C45.0435 24.1899 44.9888 24.3966 44.8852 24.576L39.9088 33.1942C39.6981 33.559 39.3088 33.7839 38.8873 33.7839Z" fill="#FF575A"/>
<path d="M38.912 33.7834C38.4905 33.7834 38.0892 33.5585 37.8784 33.1937C37.6677 32.8289 37.6556 32.3792 37.8657 32.0144L42.8139 23.4457C42.8231 23.4276 42.8329 23.41 42.8433 23.3924L47.8231 14.7742C48.1484 14.2102 48.8688 14.0164 49.4331 14.3426C49.9975 14.668 50.1909 15.3886 49.8662 15.9529L39.9342 33.1929C39.7234 33.5582 39.3336 33.7834 38.912 33.7834Z" fill="#FF575A"/>
<path d="M38.912 33.7834C38.2608 33.7834 37.7189 33.2554 37.7189 32.6041C37.7189 31.9528 38.2326 31.4248 38.8838 31.4248H38.8873C39.5386 31.4248 40.0793 31.9528 40.0793 32.6041C40.0793 33.2554 39.5633 33.7834 38.912 33.7834Z" fill="#FF575A"/>
</svg>
