<svg width="24" height="24" viewBox="0 0 24 24" fill="none" xmlns="http://www.w3.org/2000/svg">
<path d="M9.19036 9.65712H8.36177C7.23104 9.61626 6.10398 9.80821 5.05053 10.2211C3.99707 10.6339 3.03971 11.2589 2.23785 12.0572L2.00928 12.3238V20.2097H5.89506V15.7334L6.41888 15.1429L6.65698 14.8667C7.89693 13.5929 9.44063 12.6555 11.1428 12.1429C10.2906 11.4944 9.61844 10.6387 9.19036 9.65712V9.65712Z" fill="#FF575A"/>
<path d="M8.3333 7.79988H8.62855C8.49137 6.622 8.69805 5.42958 9.22363 4.36657C9.74922 3.30356 10.5713 2.4154 11.5905 1.8093C11.221 1.24486 10.7113 0.786049 10.1112 0.477796C9.51118 0.169543 8.84135 0.0224144 8.16734 0.050818C7.49332 0.0792216 6.83824 0.282183 6.26624 0.639829C5.69423 0.997475 5.22492 1.49754 4.90425 2.09107C4.58358 2.68459 4.42254 3.35122 4.43692 4.02567C4.45129 4.70013 4.64058 5.35929 4.98625 5.93861C5.33192 6.51793 5.82212 6.99755 6.40884 7.3305C6.99556 7.66345 7.65869 7.83832 8.3333 7.83798V7.79988Z" fill="#FF575A"/>
<path d="M14.7809 11.3522C17.1321 11.3522 19.0381 9.44618 19.0381 7.09499C19.0381 4.74379 17.1321 2.83777 14.7809 2.83777C12.4297 2.83777 10.5237 4.74379 10.5237 7.09499C10.5237 9.44618 12.4297 11.3522 14.7809 11.3522Z" fill="#FF575A"/>
<path d="M15.0096 13.619C13.7659 13.5688 12.5248 13.7707 11.361 14.2126C10.1973 14.6546 9.13504 15.3273 8.2381 16.1905L8 16.4572V22.4858C8.00372 22.6822 8.04608 22.8759 8.12468 23.0559C8.20328 23.2359 8.31657 23.3987 8.45808 23.5349C8.59959 23.6711 8.76654 23.778 8.94941 23.8497C9.13227 23.9214 9.32747 23.9563 9.52384 23.9525H20.4669C20.6633 23.9563 20.8585 23.9214 21.0413 23.8497C21.2242 23.778 21.3911 23.6711 21.5326 23.5349C21.6742 23.3987 21.7874 23.2359 21.866 23.0559C21.9446 22.8759 21.987 22.6822 21.9907 22.4858V16.4762L21.7621 16.1905C20.871 15.3247 19.8124 14.65 18.6513 14.2078C17.4902 13.7656 16.251 13.5653 15.0096 13.619Z" fill="#FF575A"/>
</svg>
