<svg width="24" height="24" viewBox="0 0 24 24" fill="none" xmlns="http://www.w3.org/2000/svg">
<path d="M7.10125 10.011H6.39151C5.42297 9.97596 4.45757 10.1404 3.55522 10.494C2.65287 10.8477 1.83283 11.383 1.14598 12.0668L0.950195 12.2952V19.0499H4.27862V15.2157L4.7273 14.7099L4.93125 14.4733C5.99334 13.3822 7.31562 12.5793 8.77362 12.1402C8.04365 11.5847 7.46793 10.8517 7.10125 10.011V10.011Z" fill="#FF575A"/>
<path d="M22.8786 12.0423C22.1918 11.3586 21.3717 10.8232 20.4694 10.4696C19.567 10.116 18.6016 9.95154 17.6331 9.98655C17.336 9.98739 17.0392 10.0037 16.7439 10.0355C16.3703 10.8243 15.8103 11.5103 15.1123 12.0342C16.6688 12.4648 18.0788 13.3108 19.1913 14.4815L19.3952 14.71L19.8357 15.2158V19.0581H23.0499V12.2708L22.8786 12.0423Z" fill="#FF575A"/>
<path d="M6.36707 8.42019H6.61996C6.50246 7.41126 6.67949 6.38988 7.12969 5.47934C7.57989 4.56881 8.28402 3.80804 9.15707 3.28887C8.8406 2.8054 8.40398 2.41239 7.88999 2.14836C7.376 1.88432 6.80224 1.75829 6.22491 1.78262C5.64757 1.80695 5.08645 1.9808 4.59649 2.28715C4.10654 2.59349 3.70454 3.02183 3.42986 3.53022C3.15519 4.03861 3.01725 4.60962 3.02957 5.18734C3.04188 5.76506 3.20402 6.32967 3.5001 6.82589C3.79619 7.32212 4.21607 7.73294 4.71864 8.01814C5.22121 8.30333 5.78922 8.45311 6.36707 8.45282V8.42019Z" fill="#FF575A"/>
<path d="M17.2416 7.80839C17.2515 7.99589 17.2515 8.18379 17.2416 8.37129C17.3982 8.39611 17.5563 8.40974 17.7148 8.41208H17.8698C18.4451 8.3814 19.0027 8.20228 19.4882 7.89216C19.9737 7.58203 20.3707 7.15148 20.6404 6.6424C20.9102 6.13332 21.0435 5.56307 21.0274 4.98717C21.0114 4.41128 20.8464 3.84935 20.5487 3.3561C20.251 2.86286 19.8307 2.4551 19.3286 2.17253C18.8265 1.88997 18.2599 1.74221 17.6837 1.74366C17.1076 1.74511 16.5417 1.89571 16.0411 2.1808C15.5404 2.4659 15.1221 2.87576 14.8269 3.3705C15.5653 3.85258 16.1724 4.5104 16.5939 5.28497C17.0153 6.05953 17.2379 6.9266 17.2416 7.80839V7.80839Z" fill="#FF575A"/>
<path d="M11.89 11.4631C13.9039 11.4631 15.5366 9.83045 15.5366 7.8165C15.5366 5.80255 13.9039 4.16992 11.89 4.16992C9.87604 4.16992 8.24341 5.80255 8.24341 7.8165C8.24341 9.83045 9.87604 11.4631 11.89 11.4631Z" fill="#FF575A"/>
<path d="M12.0858 13.4047C11.0204 13.3616 9.95729 13.5346 8.96049 13.9131C7.9637 14.2917 7.05378 14.8679 6.28549 15.6073L6.08154 15.8357V20.9997C6.08473 21.1679 6.12102 21.3338 6.18834 21.488C6.25567 21.6421 6.3527 21.7815 6.47392 21.8982C6.59513 22.0149 6.73814 22.1065 6.89477 22.1679C7.05141 22.2293 7.2186 22.2592 7.38681 22.256H16.7602C16.9284 22.2592 17.0956 22.2293 17.2523 22.1679C17.4089 22.1065 17.5519 22.0149 17.6731 21.8982C17.7943 21.7815 17.8914 21.6421 17.9587 21.488C18.026 21.3338 18.0623 21.1679 18.0655 20.9997V15.852L17.8697 15.6073C17.1064 14.8657 16.1996 14.2878 15.2051 13.909C14.2105 13.5303 13.149 13.3586 12.0858 13.4047Z" fill="#FF575A"/>
</svg>
