<svg width="25" height="25" viewBox="0 0 25 25" fill="none" xmlns="http://www.w3.org/2000/svg">
<mask id="mask0_52_50" style="mask-type:alpha" maskUnits="userSpaceOnUse" x="0" y="0" width="25" height="25">
<path d="M24.2942 4.438C24.6502 5.38105 24.8392 6.37874 24.8526 7.38645C24.9269 8.65394 24.9273 9.06843 24.9299 12.277L24.9299 12.3214C24.9299 15.5718 24.9126 15.9776 24.8553 17.2576C24.8353 18.2542 24.6474 19.2361 24.2969 20.1675C23.9878 20.9627 23.5161 21.6849 22.912 22.2881C22.3078 22.8913 21.5843 23.3622 20.7878 23.6707C19.8553 24.0201 18.8702 24.2087 17.8744 24.2282C16.6016 24.3027 16.1845 24.3027 12.9299 24.3027C9.67538 24.3027 9.26889 24.2854 7.98546 24.2282C6.98774 24.1955 6.00292 23.993 5.07342 23.6295C4.27653 23.3216 3.55273 22.8511 2.94828 22.2481C2.34383 21.6451 1.87202 20.9229 1.56298 20.1276C1.21247 19.1949 1.02456 18.2129 1.00457 17.2177C0.929932 15.9457 0.929932 15.5306 0.929932 12.2814C0.929932 9.03231 0.947257 8.6265 1.00457 7.3452C1.02339 6.35145 1.21225 5.36822 1.56298 4.438C1.8715 3.64243 2.34296 2.9199 2.94721 2.31666C3.55146 1.71342 4.27519 1.24274 5.07209 0.934734C6.00414 0.585428 6.98878 0.396475 7.98413 0.375913C9.2569 0.302734 9.67405 0.302734 12.9286 0.302734C16.1832 0.302734 16.5896 0.318701 17.8717 0.375913C18.8675 0.396325 19.8526 0.585281 20.7851 0.934734C21.5819 1.24295 22.3055 1.71371 22.9097 2.31692C23.5139 2.92014 23.9855 3.64255 24.2942 4.438Z" fill="#C4C4C4"/>
</mask>
<g mask="url(#mask0_52_50)">
<path d="M5.31219 0.302734C2.88461 0.302734 0.929932 2.25741 0.929932 4.68499V19.9205C0.929932 22.3481 2.88461 24.3028 5.31219 24.3028H13.5697V14.9202H11.0887V11.5422H13.5697V8.65625C13.5697 6.38885 15.0356 4.30699 18.4124 4.30699C19.7797 4.30699 20.7907 4.43825 20.7907 4.43825L20.7112 7.59276C20.7112 7.59276 19.6801 7.58301 18.5549 7.58301C17.3372 7.58301 17.1419 8.14409 17.1419 9.07553V11.5423H20.8079L20.6482 14.9203H17.1419V24.3028H20.5477C22.9753 24.3028 24.9299 22.3481 24.9299 19.9205V4.68501C24.9299 2.25744 22.9753 0.302758 20.5477 0.302758H5.31216L5.31219 0.302734Z" fill="#FAF7F2"/>
</g>
</svg>
