<svg width="25" height="25" viewBox="0 0 25 25" fill="none" xmlns="http://www.w3.org/2000/svg">
<path d="M24.3661 7.4063C24.3526 6.39692 24.1637 5.39756 23.8076 4.45295C23.4989 3.65617 23.0274 2.93256 22.4232 2.32834C21.8189 1.72411 21.0953 1.25257 20.2985 0.943843C19.3661 0.593808 18.381 0.404538 17.3852 0.384092C16.1031 0.326784 15.6966 0.310791 12.442 0.310791C9.18747 0.310791 8.77033 0.310791 7.49756 0.384092C6.50221 0.404688 5.51757 0.593956 4.58552 0.943843C3.78862 1.25236 3.06489 1.72382 2.46064 2.32807C1.85639 2.93232 1.38493 3.65605 1.07641 4.45295C0.725675 5.38471 0.536815 6.36958 0.517993 7.36499C0.460685 8.64842 0.443359 9.05491 0.443359 12.3095C0.443359 15.564 0.443359 15.9798 0.517993 17.2539C0.537984 18.2508 0.7259 19.2344 1.07641 20.1686C1.38544 20.9653 1.85726 21.6887 2.46171 22.2927C3.06616 22.8967 3.78996 23.368 4.58685 23.6764C5.51635 24.0405 6.50116 24.2433 7.49889 24.2761C8.78232 24.3334 9.18881 24.3508 12.4434 24.3508C15.6979 24.3508 16.1151 24.3508 17.3878 24.2761C18.3836 24.2565 19.3688 24.0677 20.3012 23.7177C21.0978 23.4086 21.8212 22.937 22.4254 22.3328C23.0296 21.7286 23.5012 21.0052 23.8103 20.2086C24.1608 19.2757 24.3487 18.2921 24.3687 17.2939C24.426 16.0118 24.4434 15.6053 24.4434 12.3494C24.4407 9.09489 24.4407 8.68174 24.3661 7.4063V7.4063ZM12.434 18.4641C9.03021 18.4641 6.27277 15.7066 6.27277 12.3028C6.27277 8.89897 9.03021 6.14153 12.434 6.14153C14.0681 6.14153 15.6352 6.79066 16.7907 7.94613C17.9462 9.10159 18.5953 10.6687 18.5953 12.3028C18.5953 13.9369 17.9462 15.504 16.7907 16.6595C15.6352 17.8149 14.0681 18.4641 12.434 18.4641V18.4641ZM18.8405 7.35033C18.6518 7.3505 18.4649 7.31346 18.2905 7.24132C18.1161 7.16919 17.9577 7.06337 17.8242 6.92992C17.6908 6.79648 17.585 6.63803 17.5128 6.46364C17.4407 6.28925 17.4036 6.10235 17.4038 5.91363C17.4038 5.72505 17.441 5.53832 17.5131 5.36409C17.5853 5.18986 17.6911 5.03156 17.8244 4.89821C17.9578 4.76486 18.1161 4.65908 18.2903 4.58692C18.4645 4.51475 18.6513 4.47761 18.8399 4.47761C19.0284 4.47761 19.2152 4.51475 19.3894 4.58692C19.5636 4.65908 19.7219 4.76486 19.8553 4.89821C19.9886 5.03156 20.0944 5.18986 20.1666 5.36409C20.2387 5.53832 20.2759 5.72505 20.2759 5.91363C20.2759 6.70795 19.6335 7.35033 18.8405 7.35033Z" fill="#FAF7F2"/>
<path d="M12.4339 16.305C14.6442 16.305 16.4361 14.5131 16.4361 12.3028C16.4361 10.0924 14.6442 8.30054 12.4339 8.30054C10.2235 8.30054 8.43164 10.0924 8.43164 12.3028C8.43164 14.5131 10.2235 16.305 12.4339 16.305Z" fill="#FAF7F2"/>
</svg>
