<svg width="25" height="25" viewBox="0 0 25 25" fill="none" xmlns="http://www.w3.org/2000/svg">
<mask id="mask0_52_52" style="mask-type:alpha" maskUnits="userSpaceOnUse" x="0" y="0" width="25" height="25">
<path d="M24.3206 4.438C24.6766 5.38105 24.8656 6.37874 24.879 7.38645C24.9533 8.65394 24.9536 9.06843 24.9563 12.277L24.9563 12.3214C24.9563 15.5718 24.939 15.9776 24.8817 17.2576C24.8617 18.2542 24.6738 19.2361 24.3232 20.1675C24.0142 20.9627 23.5425 21.6849 22.9383 22.2881C22.3341 22.8913 21.6107 23.3622 20.8141 23.6707C19.8817 24.0201 18.8965 24.2087 17.9008 24.2282C16.628 24.3027 16.2109 24.3027 12.9563 24.3027C9.70175 24.3027 9.29526 24.2854 8.01183 24.2282C7.0141 24.1955 6.02929 23.993 5.09979 23.6295C4.3029 23.3216 3.5791 22.8511 2.97465 22.2481C2.3702 21.6451 1.89838 20.9229 1.58935 20.1276C1.23884 19.1949 1.05092 18.2129 1.03093 17.2177C0.956299 15.9457 0.956299 15.5306 0.956299 12.2814C0.956299 9.03231 0.973624 8.6265 1.03093 7.3452C1.04975 6.35145 1.23861 5.36822 1.58935 4.438C1.89787 3.64243 2.36933 2.9199 2.97358 2.31666C3.57783 1.71342 4.30156 1.24274 5.09846 0.934734C6.03051 0.585428 7.01515 0.396475 8.0105 0.375913C9.28327 0.302734 9.70041 0.302734 12.955 0.302734C16.2095 0.302734 16.616 0.318701 17.8981 0.375913C18.8939 0.396325 19.879 0.585281 20.8115 0.934734C21.6083 1.24295 22.3319 1.71371 22.9361 2.31692C23.5403 2.92014 24.0119 3.64255 24.3206 4.438Z" fill="#C4C4C4"/>
</mask>
<g mask="url(#mask0_52_52)">
<path d="M5.6594 0.302734C3.07306 0.302734 0.956299 2.41945 0.956299 5.00584V19.6004C0.956299 22.1867 3.07302 24.3027 5.6594 24.3027H20.254C22.8403 24.3027 24.9563 22.1868 24.9563 19.6004V5.00584C24.9563 2.4195 22.8403 0.302734 20.254 0.302734H5.6594ZM6.8423 4.26322C8.0824 4.26322 8.84624 5.07732 8.86982 6.14744C8.86982 7.19394 8.08235 8.03092 6.81832 8.03092H6.79505C5.57856 8.03092 4.79229 7.19399 4.79229 6.14744C4.79229 5.07734 5.60235 4.26322 6.84228 4.26322H6.8423ZM17.5289 9.26484C19.9138 9.26484 21.7017 10.8237 21.7017 14.1735V20.427H18.0772V14.5927C18.0772 13.1266 17.5527 12.1264 16.241 12.1264C15.2397 12.1264 14.6428 12.8006 14.3808 13.4518C14.285 13.6848 14.2615 14.0103 14.2615 14.3362V20.427H10.637C10.637 20.427 10.6846 10.5439 10.637 9.5206H14.2622V11.0651C14.7439 10.3219 15.6054 9.26482 17.5289 9.26482V9.26484ZM5.00608 9.52139H8.63053V20.427H5.00608V9.52139V9.52139Z" fill="#FAF7F2"/>
</g>
</svg>
