<svg width="150" height="40" viewBox="0 0 150 40" fill="none" xmlns="http://www.w3.org/2000/svg">
<path d="M16.9506 21.2514C16.5088 21.2514 16.1008 21.0157 15.8805 20.6333L10.6634 11.5999C10.3224 11.0087 10.5246 10.2528 11.116 9.91144C11.7063 9.56832 12.4626 9.77262 12.8048 10.3638L16.9512 17.5443L20.7434 10.9818L16.2372 3.18149H7.22793L10.6634 7.25518C10.3224 7.84636 9.56671 8.04855 8.97462 7.70815C8.38374 7.36684 8.18094 6.61088 8.52195 6.0197L5.44321 1.32766C5.66411 0.945007 6.07212 0.709318 6.51392 0.709318H16.9506C17.3924 0.709318 17.7998 0.944705 18.0207 1.32706L23.2409 10.3635C23.4624 10.7462 23.4624 11.2178 23.2409 11.6002L18.0207 20.6336C17.7998 21.016 17.3918 21.2514 16.9506 21.2514Z" fill="#FF575A"/>
<path d="M16.9506 21.2514H16.9241C16.4823 21.2514 16.0743 21.016 15.854 20.6336L5.442 2.56133C5.1022 1.96985 5.3056 1.2148 5.89708 0.874392C6.48796 0.533684 7.24301 0.736781 7.58402 1.32706L18.0207 19.3972C18.2416 19.7796 18.2422 20.2507 18.0213 20.6333C17.8004 21.0157 17.3924 21.2514 16.9506 21.2514Z" fill="#FF575A"/>
<path d="M16.9536 21.2514C16.271 21.2514 15.7025 20.6979 15.7025 20.0153C15.7025 19.3327 16.2414 18.7792 16.9241 18.7792H16.9506C17.6332 18.7792 18.1885 19.3327 18.1885 20.0153C18.1885 20.6979 17.6363 21.2514 16.9536 21.2514Z" fill="#FF575A"/>
<path d="M16.9506 39.3212H6.51392C6.07212 39.3212 5.66411 39.0856 5.44321 38.7029L0.230294 29.6695C0.00939235 29.2871 0.00999616 28.816 0.230294 28.4337C0.451196 28.0513 0.8592 27.8156 1.301 27.8156H11.0189L15.8805 19.3972C16.1008 19.0149 16.5088 18.7792 16.9506 18.7792C17.3918 18.7792 17.7998 19.0146 18.0207 19.3969L23.2409 28.4301C23.4624 28.8124 23.4624 29.2841 23.2409 29.6668L18.0207 38.7035C17.7998 39.0859 17.3924 39.3212 16.9506 39.3212ZM7.22793 36.8491H16.2372L20.7434 29.0484L16.9512 22.4862L12.8235 29.6333C12.6153 30.0222 12.2055 30.2878 11.7341 30.2878H3.44121L7.22793 36.8491Z" fill="#FF575A"/>
<path d="M11.7341 30.2878C11.2923 30.2878 10.8698 30.0521 10.6489 29.6698C10.428 29.2871 10.4135 28.816 10.6344 28.4334L15.854 19.3969C16.0743 19.0146 16.4823 18.7792 16.9241 18.7792C17.3659 18.7792 17.7871 19.0149 18.008 19.3972C18.229 19.7799 18.2416 20.251 18.0207 20.6333L12.8235 29.6333C12.6153 30.0222 12.2055 30.2878 11.7341 30.2878Z" fill="#FF575A"/>
<path d="M16.9536 21.2514H16.9506C16.268 21.2514 15.7013 20.6979 15.7013 20.0153C15.7013 19.3327 16.2414 18.7792 16.9241 18.7792C17.6067 18.7792 18.1746 19.3327 18.1746 20.0153C18.1746 20.6979 17.6363 21.2514 16.9536 21.2514Z" fill="#FF575A"/>
<path d="M40.2995 39.3219H29.8634C29.4216 39.3219 29.0142 39.0866 28.7933 38.7042L23.5731 29.6675C23.3516 29.2848 23.3516 28.8131 23.5731 28.4308L28.7933 19.3976C29.0142 19.0153 29.4222 18.7799 29.8634 18.7799C30.3052 18.7799 30.7132 19.0156 30.9341 19.3979L35.7952 27.8163H45.513C45.9548 27.8163 46.3628 28.052 46.5837 28.4344C46.804 28.8167 46.804 29.2878 46.5837 29.6702L41.3702 38.7036C41.1493 39.0863 40.7413 39.3219 40.2995 39.3219ZM30.5768 36.8498H39.5855L43.3722 30.2885H35.0799C34.5977 30.2885 34.1807 30.0127 33.9766 29.6101L29.8628 22.4872L26.0707 29.0491L30.5768 36.8498Z" fill="#FF575A"/>
<path d="M35.1095 30.2885C34.6496 30.2885 34.235 30.0374 34.0135 29.665L34.0098 29.6675L28.7927 20.634C28.5724 20.2517 28.5724 19.7803 28.7927 19.3979C29.0136 19.0156 29.4216 18.7799 29.8634 18.7799H29.8894C30.3312 18.7799 30.7386 19.0153 30.9595 19.3976L36.1796 28.4341C36.4005 28.8164 36.4011 29.2878 36.1802 29.6705C35.9593 30.0528 35.5513 30.2885 35.1095 30.2885Z" fill="#FF575A"/>
<path d="M29.8894 21.2521H29.8634C29.1808 21.2521 28.6255 20.6986 28.6255 20.016C28.6255 19.3334 29.1772 18.7799 29.8598 18.7799C30.5424 18.7799 31.111 19.3334 31.111 20.016C31.111 20.6986 30.572 21.2521 29.8894 21.2521Z" fill="#FF575A"/>
<path d="M29.8634 21.2525C29.4222 21.2525 29.0142 21.0171 28.7933 20.6348L23.5731 11.6013C23.3516 11.219 23.3516 10.7473 23.5731 10.3647L28.7933 1.32821C29.0142 0.945854 29.4216 0.710466 29.8634 0.710466H40.2995C40.7413 0.710466 41.1493 0.946155 41.3702 1.32881L38.4575 6.07729C38.7985 6.66847 38.5957 7.42443 38.0048 7.76574C37.4115 8.10614 36.6576 7.90395 36.316 7.31277L39.5855 3.18263H30.5768L26.0707 10.983L29.8628 17.5452L33.9935 10.3924C34.203 10.0073 34.611 9.7454 35.0799 9.7454C35.7626 9.7454 36.316 10.2971 36.316 10.9797C36.316 11.1967 36.2587 11.4133 36.1501 11.6013L30.9341 20.6345C30.7132 21.0168 30.3052 21.2525 29.8634 21.2525Z" fill="#FF575A"/>
<path d="M29.8894 21.2521C29.4476 21.2521 29.0269 21.0164 28.806 20.634C28.5851 20.2517 28.5724 19.7803 28.7927 19.3979L33.9791 10.4167C33.9887 10.3977 33.999 10.3793 34.0098 10.3609L39.2294 1.32777C39.5704 0.736586 40.3255 0.53349 40.9169 0.875404C41.5084 1.21641 41.7112 1.97176 41.3708 2.56325L30.9607 20.6331C30.7398 21.0161 30.3312 21.2521 29.8894 21.2521Z" fill="#FF575A"/>
<path d="M29.8894 21.2521C29.2067 21.2521 28.6388 20.6986 28.6388 20.016C28.6388 19.3334 29.1772 18.7799 29.8598 18.7799H29.8634C30.546 18.7799 31.1128 19.3334 31.1128 20.016C31.1128 20.6986 30.572 21.2521 29.8894 21.2521Z" fill="#FF575A"/>
<mask id="path-13-outside-1_1_6" maskUnits="userSpaceOnUse" x="35.3456" y="7.72056" width="109" height="22" fill="black">
<rect fill="white" x="35.3456" y="7.72056" width="109" height="22"/>
<path d="M42.1645 24.9009C41.1694 24.9009 40.3042 24.7278 39.5687 24.3817C38.8476 24.0356 38.2492 23.5742 37.7733 22.9973C37.2974 22.4061 36.9369 21.7571 36.6917 21.0505C36.461 20.3439 36.3456 19.6372 36.3456 18.9306V18.5412C36.3456 17.8058 36.461 17.0847 36.6917 16.3781C36.9369 15.6715 37.2974 15.0369 37.7733 14.4745C38.2636 13.8977 38.8693 13.4362 39.5903 13.0901C40.3114 12.744 41.155 12.571 42.1212 12.571C43.0874 12.571 43.9527 12.7512 44.717 13.1117C45.4957 13.4723 46.1158 13.9842 46.5773 14.6476C47.0532 15.2965 47.32 16.068 47.3777 16.9621H45.3876C45.2866 16.2411 44.9549 15.6426 44.3925 15.1667C43.8301 14.6764 43.073 14.4313 42.1212 14.4313C41.2992 14.4313 40.6142 14.6187 40.0662 14.9937C39.5182 15.3686 39.1072 15.8806 38.8332 16.5295C38.5592 17.1785 38.4222 17.9139 38.4222 18.7359C38.4222 19.5291 38.5592 20.2573 38.8332 20.9207C39.1072 21.5697 39.5182 22.0888 40.0662 22.4782C40.6286 22.8531 41.3281 23.0406 42.1645 23.0406C43.1307 23.0406 43.9094 22.7954 44.5007 22.3051C45.0919 21.8004 45.4308 21.1803 45.5173 20.4448H47.5074C47.4642 21.3533 47.1974 22.1393 46.7071 22.8026C46.2312 23.466 45.5967 23.9852 44.8035 24.3601C44.0248 24.7206 43.1451 24.9009 42.1645 24.9009Z"/>
<path d="M50.3292 24.5115V12.9603H51.9732V16.4214C52.1462 15.1812 52.6005 14.2726 53.3359 13.6958C54.0714 13.119 55.0737 12.8305 56.3427 12.8305H56.7321V14.6908H55.9966C54.8429 14.6908 53.956 15.0009 53.3359 15.621C52.7158 16.2267 52.4058 17.1064 52.4058 18.26V24.5115H50.3292Z"/>
<path d="M64.396 24.9009C63.3866 24.9009 62.4997 24.7278 61.7354 24.3817C60.9711 24.0356 60.3221 23.5814 59.7885 23.019C59.2694 22.4421 58.8728 21.8004 58.5988 21.0938C58.3392 20.3871 58.2094 19.6661 58.2094 18.9306V18.5412C58.2094 17.8058 58.3464 17.0847 58.6204 16.3781C58.8944 15.6571 59.2982 15.0153 59.8318 14.4529C60.3654 13.8761 61.0143 13.4218 61.7786 13.0901C62.5429 12.744 63.4154 12.571 64.396 12.571C65.3767 12.571 66.2491 12.744 67.0134 13.0901C67.7778 13.4218 68.4267 13.8761 68.9603 14.4529C69.4939 15.0153 69.8976 15.6571 70.1716 16.3781C70.4456 17.0847 70.5826 17.8058 70.5826 18.5412V18.9306C70.5826 19.6661 70.4456 20.3871 70.1716 21.0938C69.9121 21.8004 69.5155 22.4421 68.9819 23.019C68.4628 23.5814 67.821 24.0356 67.0567 24.3817C66.2924 24.7278 65.4055 24.9009 64.396 24.9009ZM64.396 23.0406C65.2613 23.0406 65.9968 22.8531 66.6024 22.4782C67.2225 22.0888 67.6912 21.5697 68.0085 20.9207C68.3402 20.2718 68.506 19.5435 68.506 18.7359C68.506 17.9139 68.3402 17.1785 68.0085 16.5295C67.6768 15.8806 67.2009 15.3686 66.5808 14.9937C65.9751 14.6187 65.2469 14.4313 64.396 14.4313C63.5596 14.4313 62.8314 14.6187 62.2113 14.9937C61.5912 15.3686 61.1153 15.8806 60.7836 16.5295C60.4519 17.1785 60.2861 17.9139 60.2861 18.7359C60.2861 19.5435 60.4447 20.2718 60.762 20.9207C61.0936 21.5697 61.5623 22.0888 62.168 22.4782C62.7881 22.8531 63.5308 23.0406 64.396 23.0406Z"/>
<path d="M77.4783 24.8576C75.9641 24.8576 74.7888 24.5332 73.9524 23.8842C73.1304 23.2353 72.705 22.3484 72.6762 21.2235H74.623C74.6518 21.6706 74.8754 22.096 75.2936 22.4998C75.7262 22.8892 76.4545 23.0839 77.4783 23.0839C78.4013 23.0839 79.1079 22.9036 79.5982 22.5431C80.0885 22.1681 80.3337 21.7139 80.3337 21.1803C80.3337 20.7044 80.1534 20.3367 79.7929 20.0771C79.4324 19.8031 78.8483 19.6228 78.0408 19.5363L76.7861 19.4065C75.6901 19.2911 74.796 18.9667 74.1038 18.4331C73.4116 17.8851 73.0655 17.1208 73.0655 16.1402C73.0655 15.0297 73.4765 14.1645 74.2985 13.5444C75.1205 12.9243 76.1805 12.6142 77.4783 12.6142C78.7762 12.6142 79.829 12.9026 80.6365 13.4795C81.4441 14.0563 81.8623 14.9144 81.8912 16.0536H79.9443C79.9299 15.5922 79.7136 15.2028 79.2954 14.8855C78.8916 14.5538 78.2859 14.388 77.4783 14.388C76.6708 14.388 76.0579 14.5538 75.6397 14.8855C75.2215 15.2172 75.0124 15.6354 75.0124 16.1402C75.0124 16.5728 75.1566 16.9189 75.445 17.1785C75.7478 17.438 76.2381 17.6039 76.9159 17.676L78.1706 17.8058C79.4108 17.9356 80.4058 18.2817 81.1557 18.8441C81.9056 19.3921 82.2805 20.1708 82.2805 21.1803C82.2805 21.9013 82.0714 22.5431 81.6532 23.1055C81.2494 23.6535 80.687 24.0861 79.966 24.4034C79.2449 24.7062 78.4157 24.8576 77.4783 24.8576Z"/>
<path d="M89.0757 24.8576C87.5615 24.8576 86.3862 24.5332 85.5497 23.8842C84.7278 23.2353 84.3023 22.3484 84.2735 21.2235H86.2203C86.2492 21.6706 86.4727 22.096 86.8909 22.4998C87.3235 22.8892 88.0518 23.0839 89.0757 23.0839C89.9986 23.0839 90.7052 22.9036 91.1956 22.5431C91.6859 22.1681 91.931 21.7139 91.931 21.1803C91.931 20.7044 91.7508 20.3367 91.3902 20.0771C91.0297 19.8031 90.4457 19.6228 89.6381 19.5363L88.3835 19.4065C87.2875 19.2911 86.3934 18.9667 85.7012 18.4331C85.009 17.8851 84.6629 17.1208 84.6629 16.1402C84.6629 15.0297 85.0739 14.1645 85.8959 13.5444C86.7178 12.9243 87.7778 12.6142 89.0757 12.6142C90.3736 12.6142 91.4263 12.9026 92.2339 13.4795C93.0414 14.0563 93.4597 14.9144 93.4885 16.0536H91.5417C91.5272 15.5922 91.3109 15.2028 90.8927 14.8855C90.4889 14.5538 89.8833 14.388 89.0757 14.388C88.2681 14.388 87.6552 14.5538 87.237 14.8855C86.8188 15.2172 86.6097 15.6354 86.6097 16.1402C86.6097 16.5728 86.7539 16.9189 87.0423 17.1785C87.3452 17.438 87.8355 17.6039 88.5133 17.676L89.7679 17.8058C91.0081 17.9356 92.0031 18.2817 92.753 18.8441C93.5029 19.3921 93.8779 20.1708 93.8779 21.1803C93.8779 21.9013 93.6688 22.5431 93.2505 23.1055C92.8468 23.6535 92.2843 24.0861 91.5633 24.4034C90.8422 24.7062 90.013 24.8576 89.0757 24.8576Z"/>
<path d="M96.8875 28.8378V12.9603H98.5315V15.7941C98.9209 14.6836 99.5265 13.8689 100.349 13.3497C101.171 12.8305 102.093 12.571 103.117 12.571C104.242 12.571 105.216 12.845 106.038 13.393C106.874 13.941 107.523 14.6692 107.984 15.5777C108.446 16.4718 108.677 17.4597 108.677 18.5412V18.9306C108.677 20.0122 108.439 21.0072 107.963 21.9158C107.487 22.8099 106.824 23.5309 105.973 24.0789C105.136 24.6269 104.17 24.9009 103.074 24.9009C102.281 24.9009 101.517 24.7351 100.781 24.4034C100.046 24.0717 99.44 23.5309 98.9641 22.781V28.8378H96.8875ZM102.75 23.0839C103.528 23.0839 104.206 22.9036 104.783 22.5431C105.36 22.1681 105.807 21.6562 106.124 21.0072C106.441 20.3439 106.6 19.5868 106.6 18.7359C106.6 17.8707 106.441 17.1136 106.124 16.4646C105.807 15.8157 105.36 15.3109 104.783 14.9504C104.206 14.5755 103.528 14.388 102.75 14.388C102.057 14.388 101.416 14.5466 100.824 14.8639C100.233 15.1667 99.7573 15.6138 99.3968 16.205C99.0507 16.7819 98.8776 17.4813 98.8776 18.3033V19.2983C98.8776 20.0915 99.0579 20.7693 99.4184 21.3317C99.7789 21.8941 100.255 22.3268 100.846 22.6296C101.437 22.9324 102.072 23.0839 102.75 23.0839Z"/>
<path d="M115.003 24.8144C113.691 24.8144 112.659 24.4899 111.91 23.841C111.174 23.1776 110.806 22.2474 110.806 21.0505C110.806 19.8247 111.217 18.9018 112.039 18.2817C112.861 17.6471 114.022 17.3299 115.522 17.3299H118.442V17.0487C118.442 15.4479 117.635 14.6476 116.02 14.6476C115.356 14.6476 114.664 14.662 113.943 14.6908C113.222 14.7197 112.623 14.7485 112.147 14.7774V12.9603C112.609 12.9171 113.121 12.8882 113.683 12.8738C114.26 12.845 114.808 12.8305 115.327 12.8305C117.101 12.8305 118.392 13.155 119.199 13.804C120.021 14.4529 120.432 15.5849 120.432 17.2001V24.5115H118.788V22.2186C118.269 23.9491 117.007 24.8144 115.003 24.8144ZM115.435 23.1704C115.926 23.1704 116.394 23.0839 116.842 22.9108C117.289 22.7233 117.656 22.4205 117.945 22.0023C118.248 21.5697 118.413 20.9784 118.442 20.2285V18.8874H115.435C114.599 18.8874 113.957 19.0892 113.51 19.493C113.063 19.8968 112.84 20.416 112.84 21.0505C112.84 21.685 113.063 22.197 113.51 22.5863C113.957 22.9757 114.599 23.1704 115.435 23.1704Z"/>
<path d="M128.743 24.6413C127.878 24.6413 127.128 24.5187 126.493 24.2736C125.873 24.0284 125.39 23.6102 125.044 23.019C124.712 22.4133 124.547 21.5985 124.547 20.5746V14.5178H122.556V12.9603H124.547V9.45603H126.537V12.9603H130.517V14.5178H126.537V20.8342C126.537 21.4543 126.702 21.9374 127.034 22.2835C127.38 22.6152 127.863 22.781 128.483 22.781H130.517V24.6413H128.743Z"/>
<path d="M133.454 24.5115V8.72056H135.531V14.9937C135.848 14.2294 136.302 13.6453 136.893 13.2415C137.499 12.8233 138.271 12.6142 139.208 12.6142H139.294C140.679 12.6142 141.724 13.0757 142.431 13.9986C143.138 14.9072 143.491 16.2123 143.491 17.9139V24.5115H141.414V17.4813C141.414 16.5439 141.148 15.8157 140.614 15.2965C140.095 14.7774 139.417 14.5178 138.581 14.5178C137.658 14.5178 136.915 14.8278 136.353 15.4479C135.805 16.0536 135.531 16.854 135.531 17.849V24.5115H133.454Z"/>
</mask>
<path d="M42.1645 24.9009C41.1694 24.9009 40.3042 24.7278 39.5687 24.3817C38.8476 24.0356 38.2492 23.5742 37.7733 22.9973C37.2974 22.4061 36.9369 21.7571 36.6917 21.0505C36.461 20.3439 36.3456 19.6372 36.3456 18.9306V18.5412C36.3456 17.8058 36.461 17.0847 36.6917 16.3781C36.9369 15.6715 37.2974 15.0369 37.7733 14.4745C38.2636 13.8977 38.8693 13.4362 39.5903 13.0901C40.3114 12.744 41.155 12.571 42.1212 12.571C43.0874 12.571 43.9527 12.7512 44.717 13.1117C45.4957 13.4723 46.1158 13.9842 46.5773 14.6476C47.0532 15.2965 47.32 16.068 47.3777 16.9621H45.3876C45.2866 16.2411 44.9549 15.6426 44.3925 15.1667C43.8301 14.6764 43.073 14.4313 42.1212 14.4313C41.2992 14.4313 40.6142 14.6187 40.0662 14.9937C39.5182 15.3686 39.1072 15.8806 38.8332 16.5295C38.5592 17.1785 38.4222 17.9139 38.4222 18.7359C38.4222 19.5291 38.5592 20.2573 38.8332 20.9207C39.1072 21.5697 39.5182 22.0888 40.0662 22.4782C40.6286 22.8531 41.3281 23.0406 42.1645 23.0406C43.1307 23.0406 43.9094 22.7954 44.5007 22.3051C45.0919 21.8004 45.4308 21.1803 45.5173 20.4448H47.5074C47.4642 21.3533 47.1974 22.1393 46.7071 22.8026C46.2312 23.466 45.5967 23.9852 44.8035 24.3601C44.0248 24.7206 43.1451 24.9009 42.1645 24.9009Z" fill="#FF575A"/>
<path d="M50.3292 24.5115V12.9603H51.9732V16.4214C52.1462 15.1812 52.6005 14.2726 53.3359 13.6958C54.0714 13.119 55.0737 12.8305 56.3427 12.8305H56.7321V14.6908H55.9966C54.8429 14.6908 53.956 15.0009 53.3359 15.621C52.7158 16.2267 52.4058 17.1064 52.4058 18.26V24.5115H50.3292Z" fill="#FF575A"/>
<path d="M64.396 24.9009C63.3866 24.9009 62.4997 24.7278 61.7354 24.3817C60.9711 24.0356 60.3221 23.5814 59.7885 23.019C59.2694 22.4421 58.8728 21.8004 58.5988 21.0938C58.3392 20.3871 58.2094 19.6661 58.2094 18.9306V18.5412C58.2094 17.8058 58.3464 17.0847 58.6204 16.3781C58.8944 15.6571 59.2982 15.0153 59.8318 14.4529C60.3654 13.8761 61.0143 13.4218 61.7786 13.0901C62.5429 12.744 63.4154 12.571 64.396 12.571C65.3767 12.571 66.2491 12.744 67.0134 13.0901C67.7778 13.4218 68.4267 13.8761 68.9603 14.4529C69.4939 15.0153 69.8976 15.6571 70.1716 16.3781C70.4456 17.0847 70.5826 17.8058 70.5826 18.5412V18.9306C70.5826 19.6661 70.4456 20.3871 70.1716 21.0938C69.9121 21.8004 69.5155 22.4421 68.9819 23.019C68.4628 23.5814 67.821 24.0356 67.0567 24.3817C66.2924 24.7278 65.4055 24.9009 64.396 24.9009ZM64.396 23.0406C65.2613 23.0406 65.9968 22.8531 66.6024 22.4782C67.2225 22.0888 67.6912 21.5697 68.0085 20.9207C68.3402 20.2718 68.506 19.5435 68.506 18.7359C68.506 17.9139 68.3402 17.1785 68.0085 16.5295C67.6768 15.8806 67.2009 15.3686 66.5808 14.9937C65.9751 14.6187 65.2469 14.4313 64.396 14.4313C63.5596 14.4313 62.8314 14.6187 62.2113 14.9937C61.5912 15.3686 61.1153 15.8806 60.7836 16.5295C60.4519 17.1785 60.2861 17.9139 60.2861 18.7359C60.2861 19.5435 60.4447 20.2718 60.762 20.9207C61.0936 21.5697 61.5623 22.0888 62.168 22.4782C62.7881 22.8531 63.5308 23.0406 64.396 23.0406Z" fill="#FF575A"/>
<path d="M77.4783 24.8576C75.9641 24.8576 74.7888 24.5332 73.9524 23.8842C73.1304 23.2353 72.705 22.3484 72.6762 21.2235H74.623C74.6518 21.6706 74.8754 22.096 75.2936 22.4998C75.7262 22.8892 76.4545 23.0839 77.4783 23.0839C78.4013 23.0839 79.1079 22.9036 79.5982 22.5431C80.0885 22.1681 80.3337 21.7139 80.3337 21.1803C80.3337 20.7044 80.1534 20.3367 79.7929 20.0771C79.4324 19.8031 78.8483 19.6228 78.0408 19.5363L76.7861 19.4065C75.6901 19.2911 74.796 18.9667 74.1038 18.4331C73.4116 17.8851 73.0655 17.1208 73.0655 16.1402C73.0655 15.0297 73.4765 14.1645 74.2985 13.5444C75.1205 12.9243 76.1805 12.6142 77.4783 12.6142C78.7762 12.6142 79.829 12.9026 80.6365 13.4795C81.4441 14.0563 81.8623 14.9144 81.8912 16.0536H79.9443C79.9299 15.5922 79.7136 15.2028 79.2954 14.8855C78.8916 14.5538 78.2859 14.388 77.4783 14.388C76.6708 14.388 76.0579 14.5538 75.6397 14.8855C75.2215 15.2172 75.0124 15.6354 75.0124 16.1402C75.0124 16.5728 75.1566 16.9189 75.445 17.1785C75.7478 17.438 76.2381 17.6039 76.9159 17.676L78.1706 17.8058C79.4108 17.9356 80.4058 18.2817 81.1557 18.8441C81.9056 19.3921 82.2805 20.1708 82.2805 21.1803C82.2805 21.9013 82.0714 22.5431 81.6532 23.1055C81.2494 23.6535 80.687 24.0861 79.966 24.4034C79.2449 24.7062 78.4157 24.8576 77.4783 24.8576Z" fill="#FF575A"/>
<path d="M89.0757 24.8576C87.5615 24.8576 86.3862 24.5332 85.5497 23.8842C84.7278 23.2353 84.3023 22.3484 84.2735 21.2235H86.2203C86.2492 21.6706 86.4727 22.096 86.8909 22.4998C87.3235 22.8892 88.0518 23.0839 89.0757 23.0839C89.9986 23.0839 90.7052 22.9036 91.1956 22.5431C91.6859 22.1681 91.931 21.7139 91.931 21.1803C91.931 20.7044 91.7508 20.3367 91.3902 20.0771C91.0297 19.8031 90.4457 19.6228 89.6381 19.5363L88.3835 19.4065C87.2875 19.2911 86.3934 18.9667 85.7012 18.4331C85.009 17.8851 84.6629 17.1208 84.6629 16.1402C84.6629 15.0297 85.0739 14.1645 85.8959 13.5444C86.7178 12.9243 87.7778 12.6142 89.0757 12.6142C90.3736 12.6142 91.4263 12.9026 92.2339 13.4795C93.0414 14.0563 93.4597 14.9144 93.4885 16.0536H91.5417C91.5272 15.5922 91.3109 15.2028 90.8927 14.8855C90.4889 14.5538 89.8833 14.388 89.0757 14.388C88.2681 14.388 87.6552 14.5538 87.237 14.8855C86.8188 15.2172 86.6097 15.6354 86.6097 16.1402C86.6097 16.5728 86.7539 16.9189 87.0423 17.1785C87.3452 17.438 87.8355 17.6039 88.5133 17.676L89.7679 17.8058C91.0081 17.9356 92.0031 18.2817 92.753 18.8441C93.5029 19.3921 93.8779 20.1708 93.8779 21.1803C93.8779 21.9013 93.6688 22.5431 93.2505 23.1055C92.8468 23.6535 92.2843 24.0861 91.5633 24.4034C90.8422 24.7062 90.013 24.8576 89.0757 24.8576Z" fill="#FF575A"/>
<path d="M96.8875 28.8378V12.9603H98.5315V15.7941C98.9209 14.6836 99.5265 13.8689 100.349 13.3497C101.171 12.8305 102.093 12.571 103.117 12.571C104.242 12.571 105.216 12.845 106.038 13.393C106.874 13.941 107.523 14.6692 107.984 15.5777C108.446 16.4718 108.677 17.4597 108.677 18.5412V18.9306C108.677 20.0122 108.439 21.0072 107.963 21.9158C107.487 22.8099 106.824 23.5309 105.973 24.0789C105.136 24.6269 104.17 24.9009 103.074 24.9009C102.281 24.9009 101.517 24.7351 100.781 24.4034C100.046 24.0717 99.44 23.5309 98.9641 22.781V28.8378H96.8875ZM102.75 23.0839C103.528 23.0839 104.206 22.9036 104.783 22.5431C105.36 22.1681 105.807 21.6562 106.124 21.0072C106.441 20.3439 106.6 19.5868 106.6 18.7359C106.6 17.8707 106.441 17.1136 106.124 16.4646C105.807 15.8157 105.36 15.3109 104.783 14.9504C104.206 14.5755 103.528 14.388 102.75 14.388C102.057 14.388 101.416 14.5466 100.824 14.8639C100.233 15.1667 99.7573 15.6138 99.3968 16.205C99.0507 16.7819 98.8776 17.4813 98.8776 18.3033V19.2983C98.8776 20.0915 99.0579 20.7693 99.4184 21.3317C99.7789 21.8941 100.255 22.3268 100.846 22.6296C101.437 22.9324 102.072 23.0839 102.75 23.0839Z" fill="#FF575A"/>
<path d="M115.003 24.8144C113.691 24.8144 112.659 24.4899 111.91 23.841C111.174 23.1776 110.806 22.2474 110.806 21.0505C110.806 19.8247 111.217 18.9018 112.039 18.2817C112.861 17.6471 114.022 17.3299 115.522 17.3299H118.442V17.0487C118.442 15.4479 117.635 14.6476 116.02 14.6476C115.356 14.6476 114.664 14.662 113.943 14.6908C113.222 14.7197 112.623 14.7485 112.147 14.7774V12.9603C112.609 12.9171 113.121 12.8882 113.683 12.8738C114.26 12.845 114.808 12.8305 115.327 12.8305C117.101 12.8305 118.392 13.155 119.199 13.804C120.021 14.4529 120.432 15.5849 120.432 17.2001V24.5115H118.788V22.2186C118.269 23.9491 117.007 24.8144 115.003 24.8144ZM115.435 23.1704C115.926 23.1704 116.394 23.0839 116.842 22.9108C117.289 22.7233 117.656 22.4205 117.945 22.0023C118.248 21.5697 118.413 20.9784 118.442 20.2285V18.8874H115.435C114.599 18.8874 113.957 19.0892 113.51 19.493C113.063 19.8968 112.84 20.416 112.84 21.0505C112.84 21.685 113.063 22.197 113.51 22.5863C113.957 22.9757 114.599 23.1704 115.435 23.1704Z" fill="#FF575A"/>
<path d="M128.743 24.6413C127.878 24.6413 127.128 24.5187 126.493 24.2736C125.873 24.0284 125.39 23.6102 125.044 23.019C124.712 22.4133 124.547 21.5985 124.547 20.5746V14.5178H122.556V12.9603H124.547V9.45603H126.537V12.9603H130.517V14.5178H126.537V20.8342C126.537 21.4543 126.702 21.9374 127.034 22.2835C127.38 22.6152 127.863 22.781 128.483 22.781H130.517V24.6413H128.743Z" fill="#FF575A"/>
<path d="M133.454 24.5115V8.72056H135.531V14.9937C135.848 14.2294 136.302 13.6453 136.893 13.2415C137.499 12.8233 138.271 12.6142 139.208 12.6142H139.294C140.679 12.6142 141.724 13.0757 142.431 13.9986C143.138 14.9072 143.491 16.2123 143.491 17.9139V24.5115H141.414V17.4813C141.414 16.5439 141.148 15.8157 140.614 15.2965C140.095 14.7774 139.417 14.5178 138.581 14.5178C137.658 14.5178 136.915 14.8278 136.353 15.4479C135.805 16.0536 135.531 16.854 135.531 17.849V24.5115H133.454Z" fill="#FF575A"/>
<path d="M42.1645 24.9009C41.1694 24.9009 40.3042 24.7278 39.5687 24.3817C38.8476 24.0356 38.2492 23.5742 37.7733 22.9973C37.2974 22.4061 36.9369 21.7571 36.6917 21.0505C36.461 20.3439 36.3456 19.6372 36.3456 18.9306V18.5412C36.3456 17.8058 36.461 17.0847 36.6917 16.3781C36.9369 15.6715 37.2974 15.0369 37.7733 14.4745C38.2636 13.8977 38.8693 13.4362 39.5903 13.0901C40.3114 12.744 41.155 12.571 42.1212 12.571C43.0874 12.571 43.9527 12.7512 44.717 13.1117C45.4957 13.4723 46.1158 13.9842 46.5773 14.6476C47.0532 15.2965 47.32 16.068 47.3777 16.9621H45.3876C45.2866 16.2411 44.9549 15.6426 44.3925 15.1667C43.8301 14.6764 43.073 14.4313 42.1212 14.4313C41.2992 14.4313 40.6142 14.6187 40.0662 14.9937C39.5182 15.3686 39.1072 15.8806 38.8332 16.5295C38.5592 17.1785 38.4222 17.9139 38.4222 18.7359C38.4222 19.5291 38.5592 20.2573 38.8332 20.9207C39.1072 21.5697 39.5182 22.0888 40.0662 22.4782C40.6286 22.8531 41.3281 23.0406 42.1645 23.0406C43.1307 23.0406 43.9094 22.7954 44.5007 22.3051C45.0919 21.8004 45.4308 21.1803 45.5173 20.4448H47.5074C47.4642 21.3533 47.1974 22.1393 46.7071 22.8026C46.2312 23.466 45.5967 23.9852 44.8035 24.3601C44.0248 24.7206 43.1451 24.9009 42.1645 24.9009Z" stroke="#FF575A" stroke-width="0.618042" mask="url(#path-13-outside-1_1_6)"/>
<path d="M50.3292 24.5115V12.9603H51.9732V16.4214C52.1462 15.1812 52.6005 14.2726 53.3359 13.6958C54.0714 13.119 55.0737 12.8305 56.3427 12.8305H56.7321V14.6908H55.9966C54.8429 14.6908 53.956 15.0009 53.3359 15.621C52.7158 16.2267 52.4058 17.1064 52.4058 18.26V24.5115H50.3292Z" stroke="#FF575A" stroke-width="0.618042" mask="url(#path-13-outside-1_1_6)"/>
<path d="M64.396 24.9009C63.3866 24.9009 62.4997 24.7278 61.7354 24.3817C60.9711 24.0356 60.3221 23.5814 59.7885 23.019C59.2694 22.4421 58.8728 21.8004 58.5988 21.0938C58.3392 20.3871 58.2094 19.6661 58.2094 18.9306V18.5412C58.2094 17.8058 58.3464 17.0847 58.6204 16.3781C58.8944 15.6571 59.2982 15.0153 59.8318 14.4529C60.3654 13.8761 61.0143 13.4218 61.7786 13.0901C62.5429 12.744 63.4154 12.571 64.396 12.571C65.3767 12.571 66.2491 12.744 67.0134 13.0901C67.7778 13.4218 68.4267 13.8761 68.9603 14.4529C69.4939 15.0153 69.8976 15.6571 70.1716 16.3781C70.4456 17.0847 70.5826 17.8058 70.5826 18.5412V18.9306C70.5826 19.6661 70.4456 20.3871 70.1716 21.0938C69.9121 21.8004 69.5155 22.4421 68.9819 23.019C68.4628 23.5814 67.821 24.0356 67.0567 24.3817C66.2924 24.7278 65.4055 24.9009 64.396 24.9009ZM64.396 23.0406C65.2613 23.0406 65.9968 22.8531 66.6024 22.4782C67.2225 22.0888 67.6912 21.5697 68.0085 20.9207C68.3402 20.2718 68.506 19.5435 68.506 18.7359C68.506 17.9139 68.3402 17.1785 68.0085 16.5295C67.6768 15.8806 67.2009 15.3686 66.5808 14.9937C65.9751 14.6187 65.2469 14.4313 64.396 14.4313C63.5596 14.4313 62.8314 14.6187 62.2113 14.9937C61.5912 15.3686 61.1153 15.8806 60.7836 16.5295C60.4519 17.1785 60.2861 17.9139 60.2861 18.7359C60.2861 19.5435 60.4447 20.2718 60.762 20.9207C61.0936 21.5697 61.5623 22.0888 62.168 22.4782C62.7881 22.8531 63.5308 23.0406 64.396 23.0406Z" stroke="#FF575A" stroke-width="0.618042" mask="url(#path-13-outside-1_1_6)"/>
<path d="M77.4783 24.8576C75.9641 24.8576 74.7888 24.5332 73.9524 23.8842C73.1304 23.2353 72.705 22.3484 72.6762 21.2235H74.623C74.6518 21.6706 74.8754 22.096 75.2936 22.4998C75.7262 22.8892 76.4545 23.0839 77.4783 23.0839C78.4013 23.0839 79.1079 22.9036 79.5982 22.5431C80.0885 22.1681 80.3337 21.7139 80.3337 21.1803C80.3337 20.7044 80.1534 20.3367 79.7929 20.0771C79.4324 19.8031 78.8483 19.6228 78.0408 19.5363L76.7861 19.4065C75.6901 19.2911 74.796 18.9667 74.1038 18.4331C73.4116 17.8851 73.0655 17.1208 73.0655 16.1402C73.0655 15.0297 73.4765 14.1645 74.2985 13.5444C75.1205 12.9243 76.1805 12.6142 77.4783 12.6142C78.7762 12.6142 79.829 12.9026 80.6365 13.4795C81.4441 14.0563 81.8623 14.9144 81.8912 16.0536H79.9443C79.9299 15.5922 79.7136 15.2028 79.2954 14.8855C78.8916 14.5538 78.2859 14.388 77.4783 14.388C76.6708 14.388 76.0579 14.5538 75.6397 14.8855C75.2215 15.2172 75.0124 15.6354 75.0124 16.1402C75.0124 16.5728 75.1566 16.9189 75.445 17.1785C75.7478 17.438 76.2381 17.6039 76.9159 17.676L78.1706 17.8058C79.4108 17.9356 80.4058 18.2817 81.1557 18.8441C81.9056 19.3921 82.2805 20.1708 82.2805 21.1803C82.2805 21.9013 82.0714 22.5431 81.6532 23.1055C81.2494 23.6535 80.687 24.0861 79.966 24.4034C79.2449 24.7062 78.4157 24.8576 77.4783 24.8576Z" stroke="#FF575A" stroke-width="0.618042" mask="url(#path-13-outside-1_1_6)"/>
<path d="M89.0757 24.8576C87.5615 24.8576 86.3862 24.5332 85.5497 23.8842C84.7278 23.2353 84.3023 22.3484 84.2735 21.2235H86.2203C86.2492 21.6706 86.4727 22.096 86.8909 22.4998C87.3235 22.8892 88.0518 23.0839 89.0757 23.0839C89.9986 23.0839 90.7052 22.9036 91.1956 22.5431C91.6859 22.1681 91.931 21.7139 91.931 21.1803C91.931 20.7044 91.7508 20.3367 91.3902 20.0771C91.0297 19.8031 90.4457 19.6228 89.6381 19.5363L88.3835 19.4065C87.2875 19.2911 86.3934 18.9667 85.7012 18.4331C85.009 17.8851 84.6629 17.1208 84.6629 16.1402C84.6629 15.0297 85.0739 14.1645 85.8959 13.5444C86.7178 12.9243 87.7778 12.6142 89.0757 12.6142C90.3736 12.6142 91.4263 12.9026 92.2339 13.4795C93.0414 14.0563 93.4597 14.9144 93.4885 16.0536H91.5417C91.5272 15.5922 91.3109 15.2028 90.8927 14.8855C90.4889 14.5538 89.8833 14.388 89.0757 14.388C88.2681 14.388 87.6552 14.5538 87.237 14.8855C86.8188 15.2172 86.6097 15.6354 86.6097 16.1402C86.6097 16.5728 86.7539 16.9189 87.0423 17.1785C87.3452 17.438 87.8355 17.6039 88.5133 17.676L89.7679 17.8058C91.0081 17.9356 92.0031 18.2817 92.753 18.8441C93.5029 19.3921 93.8779 20.1708 93.8779 21.1803C93.8779 21.9013 93.6688 22.5431 93.2505 23.1055C92.8468 23.6535 92.2843 24.0861 91.5633 24.4034C90.8422 24.7062 90.013 24.8576 89.0757 24.8576Z" stroke="#FF575A" stroke-width="0.618042" mask="url(#path-13-outside-1_1_6)"/>
<path d="M96.8875 28.8378V12.9603H98.5315V15.7941C98.9209 14.6836 99.5265 13.8689 100.349 13.3497C101.171 12.8305 102.093 12.571 103.117 12.571C104.242 12.571 105.216 12.845 106.038 13.393C106.874 13.941 107.523 14.6692 107.984 15.5777C108.446 16.4718 108.677 17.4597 108.677 18.5412V18.9306C108.677 20.0122 108.439 21.0072 107.963 21.9158C107.487 22.8099 106.824 23.5309 105.973 24.0789C105.136 24.6269 104.17 24.9009 103.074 24.9009C102.281 24.9009 101.517 24.7351 100.781 24.4034C100.046 24.0717 99.44 23.5309 98.9641 22.781V28.8378H96.8875ZM102.75 23.0839C103.528 23.0839 104.206 22.9036 104.783 22.5431C105.36 22.1681 105.807 21.6562 106.124 21.0072C106.441 20.3439 106.6 19.5868 106.6 18.7359C106.6 17.8707 106.441 17.1136 106.124 16.4646C105.807 15.8157 105.36 15.3109 104.783 14.9504C104.206 14.5755 103.528 14.388 102.75 14.388C102.057 14.388 101.416 14.5466 100.824 14.8639C100.233 15.1667 99.7573 15.6138 99.3968 16.205C99.0507 16.7819 98.8776 17.4813 98.8776 18.3033V19.2983C98.8776 20.0915 99.0579 20.7693 99.4184 21.3317C99.7789 21.8941 100.255 22.3268 100.846 22.6296C101.437 22.9324 102.072 23.0839 102.75 23.0839Z" stroke="#FF575A" stroke-width="0.618042" mask="url(#path-13-outside-1_1_6)"/>
<path d="M115.003 24.8144C113.691 24.8144 112.659 24.4899 111.91 23.841C111.174 23.1776 110.806 22.2474 110.806 21.0505C110.806 19.8247 111.217 18.9018 112.039 18.2817C112.861 17.6471 114.022 17.3299 115.522 17.3299H118.442V17.0487C118.442 15.4479 117.635 14.6476 116.02 14.6476C115.356 14.6476 114.664 14.662 113.943 14.6908C113.222 14.7197 112.623 14.7485 112.147 14.7774V12.9603C112.609 12.9171 113.121 12.8882 113.683 12.8738C114.26 12.845 114.808 12.8305 115.327 12.8305C117.101 12.8305 118.392 13.155 119.199 13.804C120.021 14.4529 120.432 15.5849 120.432 17.2001V24.5115H118.788V22.2186C118.269 23.9491 117.007 24.8144 115.003 24.8144ZM115.435 23.1704C115.926 23.1704 116.394 23.0839 116.842 22.9108C117.289 22.7233 117.656 22.4205 117.945 22.0023C118.248 21.5697 118.413 20.9784 118.442 20.2285V18.8874H115.435C114.599 18.8874 113.957 19.0892 113.51 19.493C113.063 19.8968 112.84 20.416 112.84 21.0505C112.84 21.685 113.063 22.197 113.51 22.5863C113.957 22.9757 114.599 23.1704 115.435 23.1704Z" stroke="#FF575A" stroke-width="0.618042" mask="url(#path-13-outside-1_1_6)"/>
<path d="M128.743 24.6413C127.878 24.6413 127.128 24.5187 126.493 24.2736C125.873 24.0284 125.39 23.6102 125.044 23.019C124.712 22.4133 124.547 21.5985 124.547 20.5746V14.5178H122.556V12.9603H124.547V9.45603H126.537V12.9603H130.517V14.5178H126.537V20.8342C126.537 21.4543 126.702 21.9374 127.034 22.2835C127.38 22.6152 127.863 22.781 128.483 22.781H130.517V24.6413H128.743Z" stroke="#FF575A" stroke-width="0.618042" mask="url(#path-13-outside-1_1_6)"/>
<path d="M133.454 24.5115V8.72056H135.531V14.9937C135.848 14.2294 136.302 13.6453 136.893 13.2415C137.499 12.8233 138.271 12.6142 139.208 12.6142H139.294C140.679 12.6142 141.724 13.0757 142.431 13.9986C143.138 14.9072 143.491 16.2123 143.491 17.9139V24.5115H141.414V17.4813C141.414 16.5439 141.148 15.8157 140.614 15.2965C140.095 14.7774 139.417 14.5178 138.581 14.5178C137.658 14.5178 136.915 14.8278 136.353 15.4479C135.805 16.0536 135.531 16.854 135.531 17.849V24.5115H133.454Z" stroke="#FF575A" stroke-width="0.618042" mask="url(#path-13-outside-1_1_6)"/>
<path d="M146.581 3.56454C144.875 3.56454 143.491 4.94824 143.491 6.65475C143.491 8.36127 144.875 9.74496 146.581 9.74496C148.288 9.74496 149.671 8.36127 149.671 6.65475C149.671 4.94824 148.288 3.56454 146.581 3.56454ZM146.581 9.22073C145.164 9.22073 144.015 8.07156 144.015 6.65475C144.015 5.23795 145.164 4.08878 146.581 4.08878C147.998 4.08878 149.147 5.23795 149.147 6.65475C149.147 8.07156 147.998 9.22073 146.581 9.22073ZM147.185 6.91204C147.425 6.82375 147.726 6.57405 147.726 6.08982C147.726 5.5987 147.412 5.18552 146.731 5.18552H145.657C145.627 5.18552 145.602 5.21036 145.602 5.24071V8.0688C145.602 8.09915 145.627 8.12398 145.657 8.12398H146.033C146.063 8.12398 146.088 8.09915 146.088 8.0688V6.99412H146.7L147.214 8.09225C147.223 8.11157 147.243 8.12398 147.264 8.12398H147.692C147.701 8.12406 147.71 8.12173 147.719 8.11719C147.727 8.11266 147.734 8.10609 147.739 8.09812C147.743 8.09014 147.746 8.08103 147.747 8.07167C147.747 8.0623 147.745 8.053 147.741 8.04466L147.185 6.91204V6.91204ZM146.65 6.60647H146.088V5.5856H146.663C146.994 5.5856 147.221 5.76011 147.221 6.10638C147.221 6.42989 147.016 6.60647 146.65 6.60647Z" fill="#FF575A"/>
</svg>
