<svg width="24" height="24" viewBox="0 0 24 24" fill="none" xmlns="http://www.w3.org/2000/svg">
<path d="M11.7749 9.85492C14.2436 9.85492 16.2449 7.85363 16.2449 5.38492C16.2449 2.9162 14.2436 0.914917 11.7749 0.914917C9.30622 0.914917 7.30493 2.9162 7.30493 5.38492C7.30493 7.85363 9.30622 9.85492 11.7749 9.85492Z" fill="#FF575A"/>
<path d="M12.015 12.2349C10.7091 12.1822 9.40595 12.3942 8.18407 12.8582C6.96218 13.3222 5.8468 14.0286 4.90503 14.9349L4.65503 15.2149V21.5449C4.65893 21.7511 4.70342 21.9545 4.78594 22.1435C4.86847 22.3325 4.98742 22.5034 5.136 22.6464C5.28458 22.7894 5.45988 22.9017 5.65189 22.977C5.8439 23.0522 6.04884 23.0889 6.25503 23.0849H17.745C17.9512 23.0889 18.1562 23.0522 18.3482 22.977C18.5402 22.9017 18.7155 22.7894 18.8641 22.6464C19.0126 22.5034 19.1316 22.3325 19.2141 22.1435C19.2966 21.9545 19.3411 21.7511 19.345 21.5449V15.2349L19.105 14.9349C18.1694 14.0258 17.0579 13.3174 15.8387 12.8532C14.6195 12.3889 13.3184 12.1785 12.015 12.2349Z" fill="#FF575A"/>
</svg>
