<svg width="151" height="40" viewBox="0 0 151 40" fill="none" xmlns="http://www.w3.org/2000/svg">
<path d="M17.5062 21.5364C17.0644 21.5364 16.6564 21.3007 16.4361 20.9184L11.2189 11.885C10.8779 11.2938 11.0801 10.5378 11.6716 10.1965C12.2619 9.85339 13.0181 10.0577 13.3604 10.6489L17.5068 17.8294L21.2989 11.2669L16.7928 3.46655H7.78349L11.2189 7.54025C10.8779 8.13143 10.1223 8.33362 9.53019 7.99321C8.93931 7.6519 8.73651 6.89595 9.07752 6.30477L5.99878 1.61273C6.21968 1.23007 6.62768 0.994385 7.06949 0.994385H17.5062C17.948 0.994385 18.3554 1.22977 18.5763 1.61212L23.7964 10.6486C24.018 11.0312 24.018 11.5029 23.7964 11.8853L18.5763 20.9187C18.3554 21.301 17.9474 21.5364 17.5062 21.5364Z" fill="#FAF7F2"/>
<path d="M17.5061 21.5364H17.4796C17.0378 21.5364 16.6298 21.301 16.4095 20.9186L5.99753 2.84635C5.65773 2.25487 5.86112 1.49982 6.45261 1.15941C7.04349 0.818703 7.79854 1.0218 8.13955 1.61208L18.5762 19.6823C18.7971 20.0646 18.7978 20.5357 18.5769 20.9183C18.3559 21.3007 17.9479 21.5364 17.5061 21.5364Z" fill="#FAF7F2"/>
<path d="M17.5092 21.5364C16.8266 21.5364 16.2581 20.9829 16.2581 20.3003C16.2581 19.6177 16.797 19.0642 17.4797 19.0642H17.5062C18.1888 19.0642 18.7441 19.6177 18.7441 20.3003C18.7441 20.9829 18.1919 21.5364 17.5092 21.5364Z" fill="#FAF7F2"/>
<path d="M17.5061 39.6063H7.06944C6.62763 39.6063 6.21963 39.3706 5.99873 38.9879L0.785811 29.9545C0.56491 29.5721 0.565513 29.1011 0.785811 28.7187C1.00671 28.3363 1.41472 28.1007 1.85652 28.1007H11.5744L16.436 19.6823C16.6563 19.2999 17.0643 19.0642 17.5061 19.0642C17.9473 19.0642 18.3553 19.2996 18.5762 19.6819L23.7964 28.7151C24.0179 29.0974 24.0179 29.5691 23.7964 29.9518L18.5762 38.9885C18.3553 39.3709 17.9479 39.6063 17.5061 39.6063ZM7.78344 37.1341H16.7927L21.2989 29.3334L17.5067 22.7713L13.379 29.9183C13.1708 30.3073 12.761 30.5728 12.2896 30.5728H3.99673L7.78344 37.1341Z" fill="#FAF7F2"/>
<path d="M12.2895 30.5728C11.8477 30.5728 11.4252 30.3371 11.2043 29.9548C10.9834 29.5721 10.969 29.1011 11.1899 28.7184L16.4094 19.6819C16.6297 19.2996 17.0377 19.0642 17.4795 19.0642C17.9213 19.0642 18.3426 19.2999 18.5635 19.6823C18.7844 20.0649 18.7971 20.536 18.5762 20.9183L13.379 29.9183C13.1707 30.3073 12.7609 30.5728 12.2895 30.5728Z" fill="#FAF7F2"/>
<path d="M17.5092 21.5364H17.5062C16.8236 21.5364 16.2568 20.9829 16.2568 20.3003C16.2568 19.6177 16.797 19.0642 17.4796 19.0642C18.1623 19.0642 18.7302 19.6177 18.7302 20.3003C18.7302 20.9829 18.1918 21.5364 17.5092 21.5364Z" fill="#FAF7F2"/>
<path d="M40.8551 39.607H30.419C29.9772 39.607 29.5698 39.3716 29.3489 38.9892L24.1288 29.9525C23.9073 29.5698 23.9073 29.0982 24.1288 28.7158L29.3489 19.6827C29.5698 19.3003 29.9778 19.0649 30.419 19.0649C30.8608 19.0649 31.2688 19.3006 31.4897 19.683L36.3508 28.1014H46.0687C46.5105 28.1014 46.9185 28.3371 47.1394 28.7194C47.3597 29.1018 47.3597 29.5729 47.1394 29.9552L41.9258 38.9886C41.7049 39.3713 41.2969 39.607 40.8551 39.607ZM31.1324 37.1348H40.1411L43.9278 30.5736H35.6356C35.1533 30.5736 34.7363 30.2977 34.5323 29.8952L30.4184 22.7723L26.6263 29.3342L31.1324 37.1348Z" fill="#FAF7F2"/>
<path d="M35.6652 30.5736C35.2052 30.5736 34.7906 30.3225 34.5691 29.9501L34.5655 29.9525L29.3483 20.9191C29.128 20.5367 29.128 20.0653 29.3483 19.683C29.5692 19.3006 29.9772 19.0649 30.419 19.0649H30.445C30.8868 19.0649 31.2942 19.3003 31.5151 19.6827L36.7353 28.7191C36.9562 29.1015 36.9568 29.5729 36.7359 29.9555C36.515 30.3379 36.107 30.5736 35.6652 30.5736Z" fill="#FAF7F2"/>
<path d="M30.445 21.5371H30.419C29.7364 21.5371 29.1812 20.9836 29.1812 20.301C29.1812 19.6184 29.7328 19.0649 30.4154 19.0649C31.098 19.0649 31.6666 19.6184 31.6666 20.301C31.6666 20.9836 31.1276 21.5371 30.445 21.5371Z" fill="#FAF7F2"/>
<path d="M30.419 21.5375C29.9778 21.5375 29.5698 21.3021 29.3489 20.9198L24.1288 11.8864C23.9073 11.504 23.9073 11.0323 24.1288 10.6497L29.3489 1.61322C29.5698 1.23087 29.9772 0.995483 30.419 0.995483H40.8551C41.2969 0.995483 41.7049 1.23117 41.9258 1.61383L39.0131 6.36231C39.3541 6.95349 39.1513 7.70944 38.5604 8.05075C37.9671 8.39116 37.2133 8.18897 36.8717 7.59779L40.1411 3.46765H31.1324L26.6263 11.268L30.4184 17.8302L34.5492 10.6774C34.7586 10.2924 35.1666 10.0304 35.6356 10.0304C36.3182 10.0304 36.8717 10.5821 36.8717 11.2647C36.8717 11.4817 36.8143 11.6983 36.7057 11.8864L31.4897 20.9195C31.2688 21.3018 30.8608 21.5375 30.419 21.5375Z" fill="#FAF7F2"/>
<path d="M30.4451 21.5371C30.0033 21.5371 29.5826 21.3014 29.3617 20.9191C29.1408 20.5367 29.1281 20.0654 29.3484 19.683L34.5348 10.7018C34.5444 10.6828 34.5547 10.6644 34.5655 10.646L39.7851 1.61283C40.1261 1.02165 40.8812 0.818551 41.4726 1.16047C42.0641 1.50147 42.2669 2.25683 41.9265 2.84831L31.5164 20.9182C31.2955 21.3011 30.8869 21.5371 30.4451 21.5371Z" fill="#FAF7F2"/>
<path d="M30.4449 21.5371C29.7623 21.5371 29.1943 20.9836 29.1943 20.301C29.1943 19.6184 29.7327 19.0649 30.4153 19.0649H30.419C31.1016 19.0649 31.6683 19.6184 31.6683 20.301C31.6683 20.9836 31.1275 21.5371 30.4449 21.5371Z" fill="#FAF7F2"/>
<mask id="path-13-outside-1_52_56" maskUnits="userSpaceOnUse" x="35.9011" y="8.00562" width="109" height="22" fill="black">
<rect fill="white" x="35.9011" y="8.00562" width="109" height="22"/>
<path d="M42.72 25.186C41.7249 25.186 40.8597 25.0129 40.1242 24.6668C39.4032 24.3207 38.8047 23.8592 38.3288 23.2824C37.8529 22.6911 37.4924 22.0422 37.2472 21.3355C37.0165 20.6289 36.9011 19.9223 36.9011 19.2157V18.8263C36.9011 18.0908 37.0165 17.3698 37.2472 16.6632C37.4924 15.9565 37.8529 15.322 38.3288 14.7596C38.8191 14.1827 39.4248 13.7213 40.1458 13.3752C40.8669 13.0291 41.7105 12.856 42.6767 12.856C43.6429 12.856 44.5082 13.0363 45.2725 13.3968C46.0512 13.7573 46.6713 14.2693 47.1328 14.9326C47.6087 15.5816 47.8755 16.3531 47.9332 17.2472H45.9431C45.8421 16.5262 45.5104 15.9277 44.948 15.4518C44.3856 14.9615 43.6285 14.7163 42.6767 14.7163C41.8547 14.7163 41.1697 14.9038 40.6217 15.2787C40.0737 15.6537 39.6627 16.1656 39.3887 16.8146C39.1147 17.4635 38.9777 18.199 38.9777 19.021C38.9777 19.8141 39.1147 20.5424 39.3887 21.2058C39.6627 21.8547 40.0737 22.3739 40.6217 22.7632C41.1842 23.1382 41.8836 23.3256 42.72 23.3256C43.6862 23.3256 44.4649 23.0805 45.0562 22.5902C45.6474 22.0854 45.9863 21.4653 46.0729 20.7299H48.063C48.0197 21.6384 47.7529 22.4243 47.2626 23.0877C46.7867 23.7511 46.1522 24.2702 45.359 24.6452C44.5803 25.0057 43.7006 25.186 42.72 25.186Z"/>
<path d="M50.8847 24.7966V13.2454H52.5287V16.7064C52.7017 15.4662 53.156 14.5577 53.8915 13.9809C54.6269 13.404 55.6292 13.1156 56.8982 13.1156H57.2876V14.9759H56.5521C55.3984 14.9759 54.5116 15.2859 53.8915 15.9061C53.2714 16.5117 52.9613 17.3914 52.9613 18.5451V24.7966H50.8847Z"/>
<path d="M64.9516 25.186C63.9421 25.186 63.0552 25.0129 62.2909 24.6668C61.5266 24.3207 60.8776 23.8664 60.3441 23.304C59.8249 22.7272 59.4283 22.0854 59.1543 21.3788C58.8947 20.6722 58.765 19.9511 58.765 19.2157V18.8263C58.765 18.0908 58.902 17.3698 59.176 16.6632C59.45 15.9421 59.8537 15.3004 60.3873 14.738C60.9209 14.1611 61.5698 13.7069 62.3341 13.3752C63.0985 13.0291 63.9709 12.856 64.9516 12.856C65.9322 12.856 66.8046 13.0291 67.569 13.3752C68.3333 13.7069 68.9822 14.1611 69.5158 14.738C70.0494 15.3004 70.4532 15.9421 70.7272 16.6632C71.0012 17.3698 71.1382 18.0908 71.1382 18.8263V19.2157C71.1382 19.9511 71.0012 20.6722 70.7272 21.3788C70.4676 22.0854 70.071 22.7272 69.5374 23.304C69.0183 23.8664 68.3765 24.3207 67.6122 24.6668C66.8479 25.0129 65.961 25.186 64.9516 25.186ZM64.9516 23.3256C65.8168 23.3256 66.5523 23.1382 67.158 22.7632C67.7781 22.3739 68.2467 21.8547 68.564 21.2058C68.8957 20.5568 69.0615 19.8286 69.0615 19.021C69.0615 18.199 68.8957 17.4635 68.564 16.8146C68.2323 16.1656 67.7564 15.6537 67.1363 15.2787C66.5307 14.9038 65.8024 14.7163 64.9516 14.7163C64.1151 14.7163 63.3869 14.9038 62.7668 15.2787C62.1467 15.6537 61.6708 16.1656 61.3391 16.8146C61.0074 17.4635 60.8416 18.199 60.8416 19.021C60.8416 19.8286 61.0002 20.5568 61.3175 21.2058C61.6492 21.8547 62.1178 22.3739 62.7235 22.7632C63.3436 23.1382 64.0863 23.3256 64.9516 23.3256Z"/>
<path d="M78.0339 25.1427C76.5197 25.1427 75.3443 24.8182 74.5079 24.1693C73.6859 23.5203 73.2605 22.6334 73.2317 21.5086H75.1785C75.2073 21.9557 75.4309 22.3811 75.8491 22.7849C76.2817 23.1742 77.01 23.3689 78.0339 23.3689C78.9568 23.3689 79.6634 23.1886 80.1537 22.8281C80.6441 22.4532 80.8892 21.9989 80.8892 21.4653C80.8892 20.9894 80.7089 20.6217 80.3484 20.3621C79.9879 20.0881 79.4038 19.9079 78.5963 19.8213L77.3417 19.6916C76.2457 19.5762 75.3516 19.2517 74.6593 18.7181C73.9671 18.1701 73.621 17.4058 73.621 16.4252C73.621 15.3148 74.032 14.4495 74.854 13.8294C75.676 13.2093 76.736 12.8993 78.0339 12.8993C79.3317 12.8993 80.3845 13.1877 81.1921 13.7645C81.9996 14.3414 82.4178 15.1994 82.4467 16.3387H80.4998C80.4854 15.8772 80.2691 15.4878 79.8509 15.1706C79.4471 14.8389 78.8414 14.6731 78.0339 14.6731C77.2263 14.6731 76.6134 14.8389 76.1952 15.1706C75.777 15.5023 75.5679 15.9205 75.5679 16.4252C75.5679 16.8578 75.7121 17.2039 76.0005 17.4635C76.3033 17.7231 76.7937 17.8889 77.4714 17.961L78.7261 18.0908C79.9663 18.2206 80.9613 18.5667 81.7112 19.1291C82.4611 19.6771 82.836 20.4559 82.836 21.4653C82.836 22.1864 82.6269 22.8281 82.2087 23.3905C81.8049 23.9385 81.2425 24.3712 80.5215 24.6884C79.8004 24.9913 78.9712 25.1427 78.0339 25.1427Z"/>
<path d="M89.6312 25.1427C88.117 25.1427 86.9417 24.8182 86.1053 24.1693C85.2833 23.5203 84.8579 22.6334 84.829 21.5086H86.7758C86.8047 21.9557 87.0282 22.3811 87.4464 22.7849C87.879 23.1742 88.6073 23.3689 89.6312 23.3689C90.5541 23.3689 91.2608 23.1886 91.7511 22.8281C92.2414 22.4532 92.4866 21.9989 92.4866 21.4653C92.4866 20.9894 92.3063 20.6217 91.9458 20.3621C91.5852 20.0881 91.0012 19.9079 90.1936 19.8213L88.939 19.6916C87.843 19.5762 86.9489 19.2517 86.2567 18.7181C85.5645 18.1701 85.2184 17.4058 85.2184 16.4252C85.2184 15.3148 85.6294 14.4495 86.4514 13.8294C87.2734 13.2093 88.3333 12.8993 89.6312 12.8993C90.9291 12.8993 91.9818 13.1877 92.7894 13.7645C93.597 14.3414 94.0152 15.1994 94.044 16.3387H92.0972C92.0828 15.8772 91.8664 15.4878 91.4482 15.1706C91.0445 14.8389 90.4388 14.6731 89.6312 14.6731C88.8236 14.6731 88.2107 14.8389 87.7925 15.1706C87.3743 15.5023 87.1652 15.9205 87.1652 16.4252C87.1652 16.8578 87.3094 17.2039 87.5978 17.4635C87.9007 17.7231 88.391 17.8889 89.0688 17.961L90.3234 18.0908C91.5636 18.2206 92.5587 18.5667 93.3085 19.1291C94.0584 19.6771 94.4334 20.4559 94.4334 21.4653C94.4334 22.1864 94.2243 22.8281 93.8061 23.3905C93.4023 23.9385 92.8399 24.3712 92.1188 24.6884C91.3978 24.9913 90.5686 25.1427 89.6312 25.1427Z"/>
<path d="M97.443 29.1229V13.2454H99.087V16.0791C99.4764 14.9687 100.082 14.1539 100.904 13.6347C101.726 13.1156 102.649 12.856 103.673 12.856C104.798 12.856 105.771 13.13 106.593 13.678C107.43 14.226 108.078 14.9543 108.54 15.8628C109.001 16.7569 109.232 17.7447 109.232 18.8263V19.2157C109.232 20.2972 108.994 21.2923 108.518 22.2008C108.042 23.0949 107.379 23.816 106.528 24.364C105.692 24.912 104.726 25.186 103.63 25.186C102.836 25.186 102.072 25.0201 101.337 24.6884C100.601 24.3567 99.9955 23.816 99.5196 23.0661V29.1229H97.443ZM103.305 23.3689C104.084 23.3689 104.762 23.1886 105.339 22.8281C105.915 22.4532 106.362 21.9412 106.68 21.2923C106.997 20.6289 107.156 19.8718 107.156 19.021C107.156 18.1557 106.997 17.3986 106.68 16.7497C106.362 16.1007 105.915 15.596 105.339 15.2355C104.762 14.8605 104.084 14.6731 103.305 14.6731C102.613 14.6731 101.971 14.8317 101.38 15.149C100.789 15.4518 100.313 15.8988 99.9523 16.4901C99.6062 17.0669 99.4331 17.7664 99.4331 18.5884V19.5834C99.4331 20.3766 99.6134 21.0543 99.9739 21.6168C100.334 22.1792 100.81 22.6118 101.402 22.9146C101.993 23.2175 102.627 23.3689 103.305 23.3689Z"/>
<path d="M115.558 25.0994C114.246 25.0994 113.215 24.775 112.465 24.126C111.73 23.4626 111.362 22.5325 111.362 21.3355C111.362 20.1098 111.773 19.1868 112.595 18.5667C113.417 17.9322 114.578 17.6149 116.078 17.6149H118.998V17.3337C118.998 15.733 118.19 14.9326 116.575 14.9326C115.912 14.9326 115.219 14.9471 114.498 14.9759C113.777 15.0047 113.179 15.0336 112.703 15.0624V13.2454C113.164 13.2021 113.676 13.1733 114.239 13.1589C114.816 13.13 115.364 13.1156 115.883 13.1156C117.657 13.1156 118.947 13.4401 119.755 14.089C120.577 14.738 120.988 15.87 120.988 17.4851V24.7966H119.344V22.5036C118.825 24.2342 117.563 25.0994 115.558 25.0994ZM115.991 23.4554C116.481 23.4554 116.95 23.3689 117.397 23.1959C117.844 23.0084 118.212 22.7055 118.5 22.2873C118.803 21.8547 118.969 21.2634 118.998 20.5136V19.1724H115.991C115.155 19.1724 114.513 19.3743 114.066 19.7781C113.619 20.1819 113.395 20.701 113.395 21.3355C113.395 21.9701 113.619 22.482 114.066 22.8714C114.513 23.2608 115.155 23.4554 115.991 23.4554Z"/>
<path d="M129.299 24.9264C128.433 24.9264 127.683 24.8038 127.049 24.5586C126.429 24.3135 125.946 23.8953 125.6 23.304C125.268 22.6983 125.102 21.8835 125.102 20.8597V14.8028H123.112V13.2454H125.102V9.74108H127.092V13.2454H131.072V14.8028H127.092V21.1192C127.092 21.7393 127.258 22.2224 127.59 22.5685C127.936 22.9002 128.419 23.0661 129.039 23.0661H131.072V24.9264H129.299Z"/>
<path d="M134.009 24.7966V9.00562H136.086V15.2787C136.403 14.5144 136.858 13.9304 137.449 13.5266C138.055 13.1084 138.826 12.8993 139.763 12.8993H139.85C141.234 12.8993 142.28 13.3608 142.987 14.2837C143.693 15.1922 144.046 16.4973 144.046 18.199V24.7966H141.97V17.7664C141.97 16.829 141.703 16.1007 141.17 15.5816C140.65 15.0624 139.973 14.8028 139.136 14.8028C138.213 14.8028 137.471 15.1129 136.908 15.733C136.36 16.3387 136.086 17.139 136.086 18.1341V24.7966H134.009Z"/>
</mask>
<path d="M42.72 25.186C41.7249 25.186 40.8597 25.0129 40.1242 24.6668C39.4032 24.3207 38.8047 23.8592 38.3288 23.2824C37.8529 22.6911 37.4924 22.0422 37.2472 21.3355C37.0165 20.6289 36.9011 19.9223 36.9011 19.2157V18.8263C36.9011 18.0908 37.0165 17.3698 37.2472 16.6632C37.4924 15.9565 37.8529 15.322 38.3288 14.7596C38.8191 14.1827 39.4248 13.7213 40.1458 13.3752C40.8669 13.0291 41.7105 12.856 42.6767 12.856C43.6429 12.856 44.5082 13.0363 45.2725 13.3968C46.0512 13.7573 46.6713 14.2693 47.1328 14.9326C47.6087 15.5816 47.8755 16.3531 47.9332 17.2472H45.9431C45.8421 16.5262 45.5104 15.9277 44.948 15.4518C44.3856 14.9615 43.6285 14.7163 42.6767 14.7163C41.8547 14.7163 41.1697 14.9038 40.6217 15.2787C40.0737 15.6537 39.6627 16.1656 39.3887 16.8146C39.1147 17.4635 38.9777 18.199 38.9777 19.021C38.9777 19.8141 39.1147 20.5424 39.3887 21.2058C39.6627 21.8547 40.0737 22.3739 40.6217 22.7632C41.1842 23.1382 41.8836 23.3256 42.72 23.3256C43.6862 23.3256 44.4649 23.0805 45.0562 22.5902C45.6474 22.0854 45.9863 21.4653 46.0729 20.7299H48.063C48.0197 21.6384 47.7529 22.4243 47.2626 23.0877C46.7867 23.7511 46.1522 24.2702 45.359 24.6452C44.5803 25.0057 43.7006 25.186 42.72 25.186Z" fill="#FAF7F2"/>
<path d="M50.8847 24.7966V13.2454H52.5287V16.7064C52.7017 15.4662 53.156 14.5577 53.8915 13.9809C54.6269 13.404 55.6292 13.1156 56.8982 13.1156H57.2876V14.9759H56.5521C55.3984 14.9759 54.5116 15.2859 53.8915 15.9061C53.2714 16.5117 52.9613 17.3914 52.9613 18.5451V24.7966H50.8847Z" fill="#FAF7F2"/>
<path d="M64.9516 25.186C63.9421 25.186 63.0552 25.0129 62.2909 24.6668C61.5266 24.3207 60.8776 23.8664 60.3441 23.304C59.8249 22.7272 59.4283 22.0854 59.1543 21.3788C58.8947 20.6722 58.765 19.9511 58.765 19.2157V18.8263C58.765 18.0908 58.902 17.3698 59.176 16.6632C59.45 15.9421 59.8537 15.3004 60.3873 14.738C60.9209 14.1611 61.5698 13.7069 62.3341 13.3752C63.0985 13.0291 63.9709 12.856 64.9516 12.856C65.9322 12.856 66.8046 13.0291 67.569 13.3752C68.3333 13.7069 68.9822 14.1611 69.5158 14.738C70.0494 15.3004 70.4532 15.9421 70.7272 16.6632C71.0012 17.3698 71.1382 18.0908 71.1382 18.8263V19.2157C71.1382 19.9511 71.0012 20.6722 70.7272 21.3788C70.4676 22.0854 70.071 22.7272 69.5374 23.304C69.0183 23.8664 68.3765 24.3207 67.6122 24.6668C66.8479 25.0129 65.961 25.186 64.9516 25.186ZM64.9516 23.3256C65.8168 23.3256 66.5523 23.1382 67.158 22.7632C67.7781 22.3739 68.2467 21.8547 68.564 21.2058C68.8957 20.5568 69.0615 19.8286 69.0615 19.021C69.0615 18.199 68.8957 17.4635 68.564 16.8146C68.2323 16.1656 67.7564 15.6537 67.1363 15.2787C66.5307 14.9038 65.8024 14.7163 64.9516 14.7163C64.1151 14.7163 63.3869 14.9038 62.7668 15.2787C62.1467 15.6537 61.6708 16.1656 61.3391 16.8146C61.0074 17.4635 60.8416 18.199 60.8416 19.021C60.8416 19.8286 61.0002 20.5568 61.3175 21.2058C61.6492 21.8547 62.1178 22.3739 62.7235 22.7632C63.3436 23.1382 64.0863 23.3256 64.9516 23.3256Z" fill="#FAF7F2"/>
<path d="M78.0339 25.1427C76.5197 25.1427 75.3443 24.8182 74.5079 24.1693C73.6859 23.5203 73.2605 22.6334 73.2317 21.5086H75.1785C75.2073 21.9557 75.4309 22.3811 75.8491 22.7849C76.2817 23.1742 77.01 23.3689 78.0339 23.3689C78.9568 23.3689 79.6634 23.1886 80.1537 22.8281C80.6441 22.4532 80.8892 21.9989 80.8892 21.4653C80.8892 20.9894 80.7089 20.6217 80.3484 20.3621C79.9879 20.0881 79.4038 19.9079 78.5963 19.8213L77.3417 19.6916C76.2457 19.5762 75.3516 19.2517 74.6593 18.7181C73.9671 18.1701 73.621 17.4058 73.621 16.4252C73.621 15.3148 74.032 14.4495 74.854 13.8294C75.676 13.2093 76.736 12.8993 78.0339 12.8993C79.3317 12.8993 80.3845 13.1877 81.1921 13.7645C81.9996 14.3414 82.4178 15.1994 82.4467 16.3387H80.4998C80.4854 15.8772 80.2691 15.4878 79.8509 15.1706C79.4471 14.8389 78.8414 14.6731 78.0339 14.6731C77.2263 14.6731 76.6134 14.8389 76.1952 15.1706C75.777 15.5023 75.5679 15.9205 75.5679 16.4252C75.5679 16.8578 75.7121 17.2039 76.0005 17.4635C76.3033 17.7231 76.7937 17.8889 77.4714 17.961L78.7261 18.0908C79.9663 18.2206 80.9613 18.5667 81.7112 19.1291C82.4611 19.6771 82.836 20.4559 82.836 21.4653C82.836 22.1864 82.6269 22.8281 82.2087 23.3905C81.8049 23.9385 81.2425 24.3712 80.5215 24.6884C79.8004 24.9913 78.9712 25.1427 78.0339 25.1427Z" fill="#FAF7F2"/>
<path d="M89.6312 25.1427C88.117 25.1427 86.9417 24.8182 86.1053 24.1693C85.2833 23.5203 84.8579 22.6334 84.829 21.5086H86.7758C86.8047 21.9557 87.0282 22.3811 87.4464 22.7849C87.879 23.1742 88.6073 23.3689 89.6312 23.3689C90.5541 23.3689 91.2608 23.1886 91.7511 22.8281C92.2414 22.4532 92.4866 21.9989 92.4866 21.4653C92.4866 20.9894 92.3063 20.6217 91.9458 20.3621C91.5852 20.0881 91.0012 19.9079 90.1936 19.8213L88.939 19.6916C87.843 19.5762 86.9489 19.2517 86.2567 18.7181C85.5645 18.1701 85.2184 17.4058 85.2184 16.4252C85.2184 15.3148 85.6294 14.4495 86.4514 13.8294C87.2734 13.2093 88.3333 12.8993 89.6312 12.8993C90.9291 12.8993 91.9818 13.1877 92.7894 13.7645C93.597 14.3414 94.0152 15.1994 94.044 16.3387H92.0972C92.0828 15.8772 91.8664 15.4878 91.4482 15.1706C91.0445 14.8389 90.4388 14.6731 89.6312 14.6731C88.8236 14.6731 88.2107 14.8389 87.7925 15.1706C87.3743 15.5023 87.1652 15.9205 87.1652 16.4252C87.1652 16.8578 87.3094 17.2039 87.5978 17.4635C87.9007 17.7231 88.391 17.8889 89.0688 17.961L90.3234 18.0908C91.5636 18.2206 92.5587 18.5667 93.3085 19.1291C94.0584 19.6771 94.4334 20.4559 94.4334 21.4653C94.4334 22.1864 94.2243 22.8281 93.8061 23.3905C93.4023 23.9385 92.8399 24.3712 92.1188 24.6884C91.3978 24.9913 90.5686 25.1427 89.6312 25.1427Z" fill="#FAF7F2"/>
<path d="M97.443 29.1229V13.2454H99.087V16.0791C99.4764 14.9687 100.082 14.1539 100.904 13.6347C101.726 13.1156 102.649 12.856 103.673 12.856C104.798 12.856 105.771 13.13 106.593 13.678C107.43 14.226 108.078 14.9543 108.54 15.8628C109.001 16.7569 109.232 17.7447 109.232 18.8263V19.2157C109.232 20.2972 108.994 21.2923 108.518 22.2008C108.042 23.0949 107.379 23.816 106.528 24.364C105.692 24.912 104.726 25.186 103.63 25.186C102.836 25.186 102.072 25.0201 101.337 24.6884C100.601 24.3567 99.9955 23.816 99.5196 23.0661V29.1229H97.443ZM103.305 23.3689C104.084 23.3689 104.762 23.1886 105.339 22.8281C105.915 22.4532 106.362 21.9412 106.68 21.2923C106.997 20.6289 107.156 19.8718 107.156 19.021C107.156 18.1557 106.997 17.3986 106.68 16.7497C106.362 16.1007 105.915 15.596 105.339 15.2355C104.762 14.8605 104.084 14.6731 103.305 14.6731C102.613 14.6731 101.971 14.8317 101.38 15.149C100.789 15.4518 100.313 15.8988 99.9523 16.4901C99.6062 17.0669 99.4331 17.7664 99.4331 18.5884V19.5834C99.4331 20.3766 99.6134 21.0543 99.9739 21.6168C100.334 22.1792 100.81 22.6118 101.402 22.9146C101.993 23.2175 102.627 23.3689 103.305 23.3689Z" fill="#FAF7F2"/>
<path d="M115.558 25.0994C114.246 25.0994 113.215 24.775 112.465 24.126C111.73 23.4626 111.362 22.5325 111.362 21.3355C111.362 20.1098 111.773 19.1868 112.595 18.5667C113.417 17.9322 114.578 17.6149 116.078 17.6149H118.998V17.3337C118.998 15.733 118.19 14.9326 116.575 14.9326C115.912 14.9326 115.219 14.9471 114.498 14.9759C113.777 15.0047 113.179 15.0336 112.703 15.0624V13.2454C113.164 13.2021 113.676 13.1733 114.239 13.1589C114.816 13.13 115.364 13.1156 115.883 13.1156C117.657 13.1156 118.947 13.4401 119.755 14.089C120.577 14.738 120.988 15.87 120.988 17.4851V24.7966H119.344V22.5036C118.825 24.2342 117.563 25.0994 115.558 25.0994ZM115.991 23.4554C116.481 23.4554 116.95 23.3689 117.397 23.1959C117.844 23.0084 118.212 22.7055 118.5 22.2873C118.803 21.8547 118.969 21.2634 118.998 20.5136V19.1724H115.991C115.155 19.1724 114.513 19.3743 114.066 19.7781C113.619 20.1819 113.395 20.701 113.395 21.3355C113.395 21.9701 113.619 22.482 114.066 22.8714C114.513 23.2608 115.155 23.4554 115.991 23.4554Z" fill="#FAF7F2"/>
<path d="M129.299 24.9264C128.433 24.9264 127.683 24.8038 127.049 24.5586C126.429 24.3135 125.946 23.8953 125.6 23.304C125.268 22.6983 125.102 21.8835 125.102 20.8597V14.8028H123.112V13.2454H125.102V9.74108H127.092V13.2454H131.072V14.8028H127.092V21.1192C127.092 21.7393 127.258 22.2224 127.59 22.5685C127.936 22.9002 128.419 23.0661 129.039 23.0661H131.072V24.9264H129.299Z" fill="#FAF7F2"/>
<path d="M134.009 24.7966V9.00562H136.086V15.2787C136.403 14.5144 136.858 13.9304 137.449 13.5266C138.055 13.1084 138.826 12.8993 139.763 12.8993H139.85C141.234 12.8993 142.28 13.3608 142.987 14.2837C143.693 15.1922 144.046 16.4973 144.046 18.199V24.7966H141.97V17.7664C141.97 16.829 141.703 16.1007 141.17 15.5816C140.65 15.0624 139.973 14.8028 139.136 14.8028C138.213 14.8028 137.471 15.1129 136.908 15.733C136.36 16.3387 136.086 17.139 136.086 18.1341V24.7966H134.009Z" fill="#FAF7F2"/>
<path d="M42.72 25.186C41.7249 25.186 40.8597 25.0129 40.1242 24.6668C39.4032 24.3207 38.8047 23.8592 38.3288 23.2824C37.8529 22.6911 37.4924 22.0422 37.2472 21.3355C37.0165 20.6289 36.9011 19.9223 36.9011 19.2157V18.8263C36.9011 18.0908 37.0165 17.3698 37.2472 16.6632C37.4924 15.9565 37.8529 15.322 38.3288 14.7596C38.8191 14.1827 39.4248 13.7213 40.1458 13.3752C40.8669 13.0291 41.7105 12.856 42.6767 12.856C43.6429 12.856 44.5082 13.0363 45.2725 13.3968C46.0512 13.7573 46.6713 14.2693 47.1328 14.9326C47.6087 15.5816 47.8755 16.3531 47.9332 17.2472H45.9431C45.8421 16.5262 45.5104 15.9277 44.948 15.4518C44.3856 14.9615 43.6285 14.7163 42.6767 14.7163C41.8547 14.7163 41.1697 14.9038 40.6217 15.2787C40.0737 15.6537 39.6627 16.1656 39.3887 16.8146C39.1147 17.4635 38.9777 18.199 38.9777 19.021C38.9777 19.8141 39.1147 20.5424 39.3887 21.2058C39.6627 21.8547 40.0737 22.3739 40.6217 22.7632C41.1842 23.1382 41.8836 23.3256 42.72 23.3256C43.6862 23.3256 44.4649 23.0805 45.0562 22.5902C45.6474 22.0854 45.9863 21.4653 46.0729 20.7299H48.063C48.0197 21.6384 47.7529 22.4243 47.2626 23.0877C46.7867 23.7511 46.1522 24.2702 45.359 24.6452C44.5803 25.0057 43.7006 25.186 42.72 25.186Z" stroke="#FAF7F2" stroke-width="0.618042" mask="url(#path-13-outside-1_52_56)"/>
<path d="M50.8847 24.7966V13.2454H52.5287V16.7064C52.7017 15.4662 53.156 14.5577 53.8915 13.9809C54.6269 13.404 55.6292 13.1156 56.8982 13.1156H57.2876V14.9759H56.5521C55.3984 14.9759 54.5116 15.2859 53.8915 15.9061C53.2714 16.5117 52.9613 17.3914 52.9613 18.5451V24.7966H50.8847Z" stroke="#FAF7F2" stroke-width="0.618042" mask="url(#path-13-outside-1_52_56)"/>
<path d="M64.9516 25.186C63.9421 25.186 63.0552 25.0129 62.2909 24.6668C61.5266 24.3207 60.8776 23.8664 60.3441 23.304C59.8249 22.7272 59.4283 22.0854 59.1543 21.3788C58.8947 20.6722 58.765 19.9511 58.765 19.2157V18.8263C58.765 18.0908 58.902 17.3698 59.176 16.6632C59.45 15.9421 59.8537 15.3004 60.3873 14.738C60.9209 14.1611 61.5698 13.7069 62.3341 13.3752C63.0985 13.0291 63.9709 12.856 64.9516 12.856C65.9322 12.856 66.8046 13.0291 67.569 13.3752C68.3333 13.7069 68.9822 14.1611 69.5158 14.738C70.0494 15.3004 70.4532 15.9421 70.7272 16.6632C71.0012 17.3698 71.1382 18.0908 71.1382 18.8263V19.2157C71.1382 19.9511 71.0012 20.6722 70.7272 21.3788C70.4676 22.0854 70.071 22.7272 69.5374 23.304C69.0183 23.8664 68.3765 24.3207 67.6122 24.6668C66.8479 25.0129 65.961 25.186 64.9516 25.186ZM64.9516 23.3256C65.8168 23.3256 66.5523 23.1382 67.158 22.7632C67.7781 22.3739 68.2467 21.8547 68.564 21.2058C68.8957 20.5568 69.0615 19.8286 69.0615 19.021C69.0615 18.199 68.8957 17.4635 68.564 16.8146C68.2323 16.1656 67.7564 15.6537 67.1363 15.2787C66.5307 14.9038 65.8024 14.7163 64.9516 14.7163C64.1151 14.7163 63.3869 14.9038 62.7668 15.2787C62.1467 15.6537 61.6708 16.1656 61.3391 16.8146C61.0074 17.4635 60.8416 18.199 60.8416 19.021C60.8416 19.8286 61.0002 20.5568 61.3175 21.2058C61.6492 21.8547 62.1178 22.3739 62.7235 22.7632C63.3436 23.1382 64.0863 23.3256 64.9516 23.3256Z" stroke="#FAF7F2" stroke-width="0.618042" mask="url(#path-13-outside-1_52_56)"/>
<path d="M78.0339 25.1427C76.5197 25.1427 75.3443 24.8182 74.5079 24.1693C73.6859 23.5203 73.2605 22.6334 73.2317 21.5086H75.1785C75.2073 21.9557 75.4309 22.3811 75.8491 22.7849C76.2817 23.1742 77.01 23.3689 78.0339 23.3689C78.9568 23.3689 79.6634 23.1886 80.1537 22.8281C80.6441 22.4532 80.8892 21.9989 80.8892 21.4653C80.8892 20.9894 80.7089 20.6217 80.3484 20.3621C79.9879 20.0881 79.4038 19.9079 78.5963 19.8213L77.3417 19.6916C76.2457 19.5762 75.3516 19.2517 74.6593 18.7181C73.9671 18.1701 73.621 17.4058 73.621 16.4252C73.621 15.3148 74.032 14.4495 74.854 13.8294C75.676 13.2093 76.736 12.8993 78.0339 12.8993C79.3317 12.8993 80.3845 13.1877 81.1921 13.7645C81.9996 14.3414 82.4178 15.1994 82.4467 16.3387H80.4998C80.4854 15.8772 80.2691 15.4878 79.8509 15.1706C79.4471 14.8389 78.8414 14.6731 78.0339 14.6731C77.2263 14.6731 76.6134 14.8389 76.1952 15.1706C75.777 15.5023 75.5679 15.9205 75.5679 16.4252C75.5679 16.8578 75.7121 17.2039 76.0005 17.4635C76.3033 17.7231 76.7937 17.8889 77.4714 17.961L78.7261 18.0908C79.9663 18.2206 80.9613 18.5667 81.7112 19.1291C82.4611 19.6771 82.836 20.4559 82.836 21.4653C82.836 22.1864 82.6269 22.8281 82.2087 23.3905C81.8049 23.9385 81.2425 24.3712 80.5215 24.6884C79.8004 24.9913 78.9712 25.1427 78.0339 25.1427Z" stroke="#FAF7F2" stroke-width="0.618042" mask="url(#path-13-outside-1_52_56)"/>
<path d="M89.6312 25.1427C88.117 25.1427 86.9417 24.8182 86.1053 24.1693C85.2833 23.5203 84.8579 22.6334 84.829 21.5086H86.7758C86.8047 21.9557 87.0282 22.3811 87.4464 22.7849C87.879 23.1742 88.6073 23.3689 89.6312 23.3689C90.5541 23.3689 91.2608 23.1886 91.7511 22.8281C92.2414 22.4532 92.4866 21.9989 92.4866 21.4653C92.4866 20.9894 92.3063 20.6217 91.9458 20.3621C91.5852 20.0881 91.0012 19.9079 90.1936 19.8213L88.939 19.6916C87.843 19.5762 86.9489 19.2517 86.2567 18.7181C85.5645 18.1701 85.2184 17.4058 85.2184 16.4252C85.2184 15.3148 85.6294 14.4495 86.4514 13.8294C87.2734 13.2093 88.3333 12.8993 89.6312 12.8993C90.9291 12.8993 91.9818 13.1877 92.7894 13.7645C93.597 14.3414 94.0152 15.1994 94.044 16.3387H92.0972C92.0828 15.8772 91.8664 15.4878 91.4482 15.1706C91.0445 14.8389 90.4388 14.6731 89.6312 14.6731C88.8236 14.6731 88.2107 14.8389 87.7925 15.1706C87.3743 15.5023 87.1652 15.9205 87.1652 16.4252C87.1652 16.8578 87.3094 17.2039 87.5978 17.4635C87.9007 17.7231 88.391 17.8889 89.0688 17.961L90.3234 18.0908C91.5636 18.2206 92.5587 18.5667 93.3085 19.1291C94.0584 19.6771 94.4334 20.4559 94.4334 21.4653C94.4334 22.1864 94.2243 22.8281 93.8061 23.3905C93.4023 23.9385 92.8399 24.3712 92.1188 24.6884C91.3978 24.9913 90.5686 25.1427 89.6312 25.1427Z" stroke="#FAF7F2" stroke-width="0.618042" mask="url(#path-13-outside-1_52_56)"/>
<path d="M97.443 29.1229V13.2454H99.087V16.0791C99.4764 14.9687 100.082 14.1539 100.904 13.6347C101.726 13.1156 102.649 12.856 103.673 12.856C104.798 12.856 105.771 13.13 106.593 13.678C107.43 14.226 108.078 14.9543 108.54 15.8628C109.001 16.7569 109.232 17.7447 109.232 18.8263V19.2157C109.232 20.2972 108.994 21.2923 108.518 22.2008C108.042 23.0949 107.379 23.816 106.528 24.364C105.692 24.912 104.726 25.186 103.63 25.186C102.836 25.186 102.072 25.0201 101.337 24.6884C100.601 24.3567 99.9955 23.816 99.5196 23.0661V29.1229H97.443ZM103.305 23.3689C104.084 23.3689 104.762 23.1886 105.339 22.8281C105.915 22.4532 106.362 21.9412 106.68 21.2923C106.997 20.6289 107.156 19.8718 107.156 19.021C107.156 18.1557 106.997 17.3986 106.68 16.7497C106.362 16.1007 105.915 15.596 105.339 15.2355C104.762 14.8605 104.084 14.6731 103.305 14.6731C102.613 14.6731 101.971 14.8317 101.38 15.149C100.789 15.4518 100.313 15.8988 99.9523 16.4901C99.6062 17.0669 99.4331 17.7664 99.4331 18.5884V19.5834C99.4331 20.3766 99.6134 21.0543 99.9739 21.6168C100.334 22.1792 100.81 22.6118 101.402 22.9146C101.993 23.2175 102.627 23.3689 103.305 23.3689Z" stroke="#FAF7F2" stroke-width="0.618042" mask="url(#path-13-outside-1_52_56)"/>
<path d="M115.558 25.0994C114.246 25.0994 113.215 24.775 112.465 24.126C111.73 23.4626 111.362 22.5325 111.362 21.3355C111.362 20.1098 111.773 19.1868 112.595 18.5667C113.417 17.9322 114.578 17.6149 116.078 17.6149H118.998V17.3337C118.998 15.733 118.19 14.9326 116.575 14.9326C115.912 14.9326 115.219 14.9471 114.498 14.9759C113.777 15.0047 113.179 15.0336 112.703 15.0624V13.2454C113.164 13.2021 113.676 13.1733 114.239 13.1589C114.816 13.13 115.364 13.1156 115.883 13.1156C117.657 13.1156 118.947 13.4401 119.755 14.089C120.577 14.738 120.988 15.87 120.988 17.4851V24.7966H119.344V22.5036C118.825 24.2342 117.563 25.0994 115.558 25.0994ZM115.991 23.4554C116.481 23.4554 116.95 23.3689 117.397 23.1959C117.844 23.0084 118.212 22.7055 118.5 22.2873C118.803 21.8547 118.969 21.2634 118.998 20.5136V19.1724H115.991C115.155 19.1724 114.513 19.3743 114.066 19.7781C113.619 20.1819 113.395 20.701 113.395 21.3355C113.395 21.9701 113.619 22.482 114.066 22.8714C114.513 23.2608 115.155 23.4554 115.991 23.4554Z" stroke="#FAF7F2" stroke-width="0.618042" mask="url(#path-13-outside-1_52_56)"/>
<path d="M129.299 24.9264C128.433 24.9264 127.683 24.8038 127.049 24.5586C126.429 24.3135 125.946 23.8953 125.6 23.304C125.268 22.6983 125.102 21.8835 125.102 20.8597V14.8028H123.112V13.2454H125.102V9.74108H127.092V13.2454H131.072V14.8028H127.092V21.1192C127.092 21.7393 127.258 22.2224 127.59 22.5685C127.936 22.9002 128.419 23.0661 129.039 23.0661H131.072V24.9264H129.299Z" stroke="#FAF7F2" stroke-width="0.618042" mask="url(#path-13-outside-1_52_56)"/>
<path d="M134.009 24.7966V9.00562H136.086V15.2787C136.403 14.5144 136.858 13.9304 137.449 13.5266C138.055 13.1084 138.826 12.8993 139.763 12.8993H139.85C141.234 12.8993 142.28 13.3608 142.987 14.2837C143.693 15.1922 144.046 16.4973 144.046 18.199V24.7966H141.97V17.7664C141.97 16.829 141.703 16.1007 141.17 15.5816C140.65 15.0624 139.973 14.8028 139.136 14.8028C138.213 14.8028 137.471 15.1129 136.908 15.733C136.36 16.3387 136.086 17.139 136.086 18.1341V24.7966H134.009Z" stroke="#FAF7F2" stroke-width="0.618042" mask="url(#path-13-outside-1_52_56)"/>
<path d="M147.137 3.84961C145.43 3.84961 144.046 5.23331 144.046 6.93982C144.046 8.64633 145.43 10.03 147.137 10.03C148.843 10.03 150.227 8.64633 150.227 6.93982C150.227 5.23331 148.843 3.84961 147.137 3.84961ZM147.137 9.5058C145.72 9.5058 144.571 8.35662 144.571 6.93982C144.571 5.52301 145.72 4.37384 147.137 4.37384C148.553 4.37384 149.703 5.52301 149.703 6.93982C149.703 8.35662 148.553 9.5058 147.137 9.5058ZM147.74 7.19711C147.98 7.10881 148.281 6.85911 148.281 6.37489C148.281 5.88377 147.967 5.47059 147.286 5.47059H146.212C146.182 5.47059 146.157 5.49542 146.157 5.52577V8.35386C146.157 8.38422 146.182 8.40905 146.212 8.40905H146.588C146.619 8.40905 146.643 8.38422 146.643 8.35386V7.27919H147.255L147.77 8.37732C147.779 8.39663 147.798 8.40905 147.819 8.40905H148.247C148.257 8.40913 148.266 8.40679 148.274 8.40226C148.282 8.39773 148.289 8.39116 148.294 8.38318C148.299 8.37521 148.302 8.3661 148.302 8.35673C148.302 8.34737 148.3 8.33807 148.296 8.32972L147.74 7.19711V7.19711ZM147.206 6.89153H146.643V5.87066H147.219C147.55 5.87066 147.777 6.04518 147.777 6.39144C147.777 6.71495 147.571 6.89153 147.206 6.89153Z" fill="#FAF7F2"/>
</svg>
